<svg xmlns="http://www.w3.org/2000/svg" width="40" height="40" viewBox="0 0 512 512"><rect width="80" height="80" x="336" y="336" fill="black" rx="8" ry="8"/><rect width="64" height="64" x="272" y="272" fill="black" rx="8" ry="8"/><rect width="64" height="64" x="416" y="416" fill="black" rx="8" ry="8"/><rect width="48" height="48" x="432" y="272" fill="black" rx="8" ry="8"/><rect width="48" height="48" x="272" y="432" fill="black" rx="8" ry="8"/><rect width="80" height="80" x="336" y="96" fill="black" rx="8" ry="8"/><rect width="176" height="176" x="288" y="48" fill="none" stroke="black" stroke-linecap="round" stroke-linejoin="round" stroke-width="32" rx="16" ry="16"/><rect width="80" height="80" x="96" y="96" fill="black" rx="8" ry="8"/><rect width="176" height="176" x="48" y="48" fill="none" stroke="black" stroke-linecap="round" stroke-linejoin="round" stroke-width="32" rx="16" ry="16"/><rect width="80" height="80" x="96" y="336" fill="black" rx="8" ry="8"/><rect width="176" height="176" x="48" y="288" fill="none" stroke="black" stroke-linecap="round" stroke-linejoin="round" stroke-width="32" rx="16" ry="16"/></svg>