<svg xmlns="http://www.w3.org/2000/svg" xmlns:xlink="http://www.w3.org/1999/xlink" viewBox="0 0 4680 3120"><defs><style>.cls-1{fill:none;}.cls-1,.cls-2,.cls-3,.cls-4{clip-rule:evenodd;}.cls-2,.cls-64{fill:#f9eddd;}.cls-3,.cls-67,.cls-87{fill:#c72465;}.cls-4,.cls-72{fill:#e42f72;}.cls-5{isolation:isolate;}.cls-16,.cls-6,.cls-74{fill:#fff;}.cls-6{opacity:0;}.cls-7{fill:#ffeeda;}.cls-8{fill:#237b7b;}.cls-9{fill:#63aaa6;}.cls-10{fill:#f5966d;}.cls-11{fill:#f48669;}.cls-11,.cls-12,.cls-64,.cls-66,.cls-67,.cls-70,.cls-72,.cls-74,.cls-76,.cls-77,.cls-79,.cls-80,.cls-81,.cls-86{fill-rule:evenodd;}.cls-12{fill:#b36fab;}.cls-13{clip-path:url(#clip-path);}.cls-14,.cls-69,.cls-71{mix-blend-mode:soft-light;}.cls-15{fill:#1a1a1a;}.cls-17{fill:#cc9672;}.cls-18,.cls-81{fill:#78addd;}.cls-19{fill:#db76ab;}.cls-20{fill:#ec4f28;}.cls-21{fill:#e9e9eb;}.cls-22,.cls-76{fill:#faae31;}.cls-23{fill:#c21f4c;}.cls-24{fill:#f28d20;}.cls-25,.cls-80{fill:#3b2e7f;}.cls-26{fill:#3875b9;}.cls-27{fill:#485ba6;}.cls-28{fill:#f6cc5f;}.cls-29{fill:#9ac9c7;}.cls-30{fill:#12102d;}.cls-31{fill:#f69e83;}.cls-32{fill:#333;}.cls-33{fill:#202020;}.cls-34{fill:#d5494b;}.cls-35{fill:#9e1c3f;}.cls-36{fill:#e93166;}.cls-37{fill:#fab995;}.cls-38{fill:#f5917e;}.cls-39{fill:#176099;}.cls-40{fill:#3d67af;}.cls-41{fill:#e87c6f;}.cls-42{fill:#e78276;}.cls-43{fill:#121212;}.cls-44{fill:#4a4a4a;}.cls-45{fill:#5d1314;}.cls-46{fill:#ee8171;opacity:0.32;}.cls-47{fill:#de7360;}.cls-48{fill:#281c1c;}.cls-49{fill:#441210;}.cls-50{fill:#731f21;}.cls-51{fill:#100f0e;}.cls-52{fill:#d55454;}.cls-53{fill:#f27c7b;}.cls-54{fill:#f9bca5;}.cls-55{fill:#7d3c17;}.cls-56{fill:#984a22;}.cls-57{fill:#fbc5a9;}.cls-58{fill:#f7a18a;}.cls-59{fill:#f1a97f;}.cls-60{fill:#f8b282;}.cls-61{fill:#dedee3;}.cls-62{fill:#fcd9ca;}.cls-63{fill:#bc3126;}.cls-65{clip-path:url(#clip-path-2);}.cls-66{fill:#f5d2b2;}.cls-68{clip-path:url(#clip-path-3);}.cls-69{opacity:0.3;}.cls-71{opacity:0.5;}.cls-73{clip-path:url(#clip-path-4);}.cls-75{clip-path:url(#clip-path-5);}.cls-77{fill:#996a80;}.cls-78{clip-path:url(#clip-path-6);}.cls-79{fill:#caabb9;}.cls-82{clip-path:url(#clip-path-7);}.cls-83{fill:#0d0d0d;}.cls-84{fill:#383939;}.cls-85{fill:#d46b5e;}.cls-86{fill:#f9f0e1;}</style><clipPath id="clip-path"><path class="cls-1" d="M1785.6,666.2a48.21,48.21,0,0,1,48-48.16h991.74a48.22,48.22,0,0,1,48,48.16V1427a48.22,48.22,0,0,1-48,48.16H1833.58a48.21,48.21,0,0,1-48-48.16Z"/></clipPath><clipPath id="clip-path-2"><path class="cls-2" d="M1922.61,1151.42c.22,5.82-5.17,3.6-8,4.71-3.08,1.19-1.45,6.45-5.62,4.7-1.55-4.7,1.1-10.77,2.4-16.46.83-3.59,3.33-19.87,6.43-19.59,20.73,1.85,46.84,7.89,69,13.33,6.87,1.67,20.78,4,21.67,5.48-.71,6.13-4,14.2-4.82,18.81-1.19,7.07,1.55,11.85-8.83,11-2.16-.18-2.86-2.1-5.61-3.14-5.08-1.9-14.29-3.94-23.28-7-11-3.79-19.63-4.29-31.3-5.48C1929.19,1157.14,1925.48,1155.58,1922.61,1151.42Z"/></clipPath><clipPath id="clip-path-3"><path class="cls-3" d="M1846.65,1271.32c20-34.31,39.45-68.46,55.38-111.29,1.68-4.54,4.78-16.45,6.42-17.24,2.66-1.28,20.78,4.58,24.88,5.49,21.18,4.72,38.7,8.2,62.6,11.75,1.59.24,11.53-.06,12.84,1.57,2,2.42-2.2,25.75-2.41,29.78-1.62,31-2.24,63.89-9.63,86.21-10.85,32.75-22.94,75.62-32,107.34-10,35.2-20.88,53-37,80-15.76,26.28-40,47.11-81.86,47-10.65,0-24-2.47-28.9-5.49-2-1.24-2-3-4-5.48-3.27-4-6.64-6.71-14.45-3.14-.48-9.69,9.07-14.53,10.43-21.94.91-4.91-1.12-13.84-1.6-21.16-3.26-49.69-.57-104-4.82-152-3.33-37.69-3.56-87.28-7.22-128.53-.54-6.13-1.21-13.5-2.41-20.37-1.78-10.26-6.3-19,0-25.87,2.39-2.62,4.31-1.47,5.62-4.7,5-12.27-7.29-29.2-13.64-40a319,319,0,0,0-38.53-51.73c-7.32-7.87-15-14.44-20.86-23.5-.67-1-.25-2.38-.8-3.14-1.87-2.53-6-6.83.8-9.41,4.39-1.67,14,.92,17.65,2.36,9.61,3.76,22.35,14.37,28.9,21.16,18.6,19.26,34.21,48,47.35,79.15,12.4,29.38,23.78,65.22,26.49,99.53C1847.76,1221.83,1843.36,1246.46,1846.65,1271.32Z"/></clipPath><clipPath id="clip-path-4"><path class="cls-4" d="M1834.39,1592.73c-118.28,28.43-276.23,33.32-414.94,19.6.12-6.6,1-11.3,1.61-19.6.3-4.13,2.79-17.26,1.6-18.81-.54-.71,8.88-41.38,4.53-40.52-43.55,8.57-96.85,28.33-110.46,2.13-6.1-11.73-10.69-26-16.06-40a138.94,138.94,0,0,1-8.83-46.24c-.82-33.52-.06-69.9,8.83-101.88,8-28.68,18.92-56.13,24.88-86.2,18.47-93.2,16.18-198.13,96.32-237.47,42.79-21,89.43-40.37,135.63-61.13,3.11-1.4,7.32-2.16,10.43-3.92,3.51-2,5.66-5,8-5.48,4.58-1,9,.69,12.84,0,9.08-1.65,22.73,1.8,35.31,4.7,11.05,2.54,23.73,3.2,31.3,6.27s13.63,7.7,21.68,10.19c24.7,7.64,52.06,12.5,69.82,25.86,48.15,36.22,59.81,116.29,65.81,195.14,2,26.57,5.7,54.58,4.82,81.51s-4.82,53.84-4.82,81.51C1812.72,1444.47,1817.88,1524.88,1834.39,1592.73Z"/></clipPath><clipPath id="clip-path-5"><path class="cls-1" d="M1671.55,1116.2c-17.43-26.35-39.88-66.06-61-94.05-3.35-4.44-9-8.48-10.44-11.75-3.92-8.75-1.4-20.39,7.23-21.17,13.32-1.18,19.51,13.11,27.29,19.6,2.32-13.94,3.31-37.79,20.06-31.35,4.33,1.67,3.43,7.19,6.42,9.4,2.37,1.77,7,.32,8.83,2.35,3.68,4.08,5.85,30.06,6.42,37.63C1678.57,1056.42,1674.18,1095.47,1671.55,1116.2Z"/></clipPath><clipPath id="clip-path-6"><path class="cls-2" d="M1566.44,928.58c0,1.25.11,2.76.15,3.54-2.2,2.12-9.23,7.93-9.43,10.87,0,2.4,11,9.42,15.45,12.53,12.35,8.59,22.21,15.83,40.8,19.25,9,1.65,21.44,3.81,26.62,1.91,3.29-1.2,8.87-11.32,9.64-12.54,1.57-2.52,7.42-11,7.22-14.89-.24-4.71-3.16-5-5-6.92,6.87-1,9.68,7.68,13.86,14.75,3.42,5.79,8.84,14,12.84,19.6,3.46,16.62-10.19,29.55-16,41.53-5.82-5.5-7.5-25.46-17.66-23.51-7.29,1.4-9.88,27-12,35.27-34-1.77-62.52-15.42-84.27-32.92-3.82-3.07-19.44-14.85-19.26-19.59,0-1.32,7.23-6.47,9.63-9.4,2-2.5,4.54-7.62,7.23-12.54,2.53-4.66,3.9-9.88,6-13.71C1554.09,938.26,1562.74,929.49,1566.44,928.58Z"/></clipPath><clipPath id="clip-path-7"><path class="cls-2" d="M1619.79,1303.63c12.08,9.73,16.66,22.23,26.5,39.18,3.23,5.58,7.07,12.75,11.23,20.38,3.42,6.29,11.23,18.38,10.43,20.38-.89,2.22-7.71,3.36-7.22,3.13-2.86,1.33-18.83,10.5-20.87,10.19-3.68-.56-10-14.12-12.84-18.81-9.48-15.69-14.27-24.77-23.28-40-2-3.48-11.62-17.92-11.23-19.6C1592.83,1317.15,1617.31,1303.56,1619.79,1303.63Z"/></clipPath></defs><title>03</title><g class="cls-5"><g id="_03" data-name="03"><rect id="_03-2" data-name="03" class="cls-6" width="4680" height="3120"/><path class="cls-7" d="M2627.93,370.24c-498.51,79.77-291.47,633.76-1216,840.17-720,160.75-513.56,1188.77,497.51,1244.53,1121.69,61.87,1900-272,1900-991.62C3809.4,1079.48,3321.66,259.22,2627.93,370.24Z"/><path class="cls-8" d="M3725,2473.09c-11.74,1.18-22.64,6.48-33,12.19-81.3,44.92-157.87,179.87-172.53,210.7l86.89-.53c46.27-62.49,141.56-95.28,155.87-179.49,1.81-10.65,1-22.41-5.51-31C3749.54,2475.57,3736.71,2471.91,3725,2473.09Z"/><path class="cls-9" d="M3691.38,2305.7c-54.19-34.1-106.77,42.91-130.84,81.14-36.41,57.81-63.06,121.71-83.52,186.76-3,9.42-29.82,122.31-30.36,122.31l18.61-.11,54.19-.33s75.85-152.51,150.25-243.54C3704.93,2408.84,3728.82,2329.27,3691.38,2305.7Z"/><path class="cls-8" d="M3566.2,2509c-26.42,56.47-51.1,120.66-71.38,185.66l5.84,1.83c25.69-82.33,81.41-236.65,165.93-345.22l-4.83-3.79C3628.51,2390.22,3596.36,2444.56,3566.2,2509Z"/><path class="cls-8" d="M3122.52,2287.83c-48.66-10.48-54.18,45.83-45.16,82.94,11.7,48.08,58.28,78.89,86.77,114.59,52.44,65.68,74.41,109,113,211.5l71-.35s-10.31-233.9-114.12-341.43C3206,2326,3160.07,2295.93,3122.52,2287.83Z"/><path class="cls-9" d="M3333.92,2226.28c-24.89-34.3-99.12-109.76-142.34-78.65-25,18,13.41,82,23.56,101.27,32.91,62.37,59.1,129.11,79.68,197.79,23.79,79.45,41.93,163,48.74,246.66.09,1.06.16,2.12.24,3.18l45.71-.27c27.54-51.3,16.44-269.88,2.06-338.28C3381.58,2310.44,3361.38,2264.12,3333.92,2226.28Z"/><path class="cls-8" d="M3443.8,2279.49c-54.36,106.46-59.11,294.37-49.19,416.74l65.37-.4c38.41-43.76,173.55-410.46,138.51-546.28C3586.41,2102.72,3505.44,2158.77,3443.8,2279.49Z"/><path class="cls-9" d="M3110.62,2324.81l-3,4.34c107.88,74.5,187.55,218.89,203,367.84l5.22-.54c-7.56-73-30.47-146.21-66.24-211.8C3213.06,2417.64,3165,2362.37,3110.62,2324.81Z"/><path class="cls-8" d="M3299.25,2275c-17.61-37.71-39.47-68.28-65-90.86l-4.06,4.61c45.25,40.06,77.73,104.54,99.28,197.14,22,94.51,35,196.12,39.64,310.62l6.12-.25c-4.68-114.89-17.7-216.87-39.79-311.77C3325.49,2341.62,3313.65,2305.8,3299.25,2275Z"/><path class="cls-9" d="M3475.34,2441.86c-25.34,90.26-39.58,173.36-43.54,254l3.37.17c7.16-145.82,48.52-302.85,130.15-494.17l-3.11-1.33C3524.54,2288.86,3496.13,2367.78,3475.34,2441.86Z"/><path class="cls-9" d="M3664.82,2549.42c-30.15,29.64-73.46,78.79-108.6,144.57l4.63,2.49c34.8-65.14,77.69-113.82,107.54-143.19,32.37-31.84,56.82-48.48,57.07-48.65l-2.93-4.37C3722.28,2500.44,3697.51,2517.28,3664.82,2549.42Z"/><ellipse class="cls-10" cx="2414.8" cy="2698.68" rx="1269.06" ry="61.32"/><path class="cls-11" d="M2825.32,618H1833.58a48.21,48.21,0,0,0-48,48.16V1427a48.21,48.21,0,0,0,48,48.16h991.74a48.22,48.22,0,0,0,48-48.16V666.2A48.22,48.22,0,0,0,2825.32,618Z"/><path class="cls-12" d="M2817.32,650.14H1841.58a24.11,24.11,0,0,0-24,24.08V1419a24.11,24.11,0,0,0,24,24.08h975.74a24.11,24.11,0,0,0,24-24.08V674.22A24.11,24.11,0,0,0,2817.32,650.14Z"/><g class="cls-13"><g class="cls-14"><path class="cls-15" d="M2708.43,549h-141a48.21,48.21,0,0,0-48,48.15V738.67a48.21,48.21,0,0,0,48,48.15h141a48.21,48.21,0,0,0,48-48.15V597.18A48.21,48.21,0,0,0,2708.43,549Z"/></g></g><path class="cls-16" d="M2165.76,737.72,2010,819.18c-1.12.59-1.76,1.74-1.39,4.45a3.29,3.29,0,0,0,2.91,1.77,3.23,3.23,0,0,0,1.52-.38l155.72-81.46c1.12-.59,1.76-1.74,1.39-4.44A3.27,3.27,0,0,0,2165.76,737.72Z"/><path class="cls-10" d="M1994.68,859.12S2125.77,990.6,2128.1,991.56c.83,0,1.68-.32,2.31-5.62l-131.1-131.47C1998,853.18,1996,853.18,1994.68,859.12Z"/><path class="cls-17" d="M1986.55,738.79c-57.42.33-103.89,47.13-103.89,104.83,0,57.91,46.78,104.85,104.49,104.85,57.51,0,104.15-46.62,104.46-104.25H1986.55Z"/><path class="cls-16" d="M2002.49,740c-.5,0-.5,88.75-.5,88.75h88.44C2090.44,779.48,2051.06,740,2002.49,740Z"/><path class="cls-10" d="M2128.1,951.81a36.47,36.47,0,1,0,36.33,36.46A36.4,36.4,0,0,0,2128.1,951.81Z"/><path class="cls-16" d="M2167.52,724A18.59,18.59,0,1,0,2186,742.55,18.56,18.56,0,0,0,2167.52,724Z"/><rect class="cls-18" x="2233.36" y="732.94" width="80.33" height="338.01"/><rect class="cls-19" x="2353.13" y="853.96" width="80.33" height="216.99"/><rect class="cls-19" x="2474.35" y="945.12" width="80.33" height="125.83"/><rect class="cls-9" x="2231.76" y="1172.68" width="43.82" height="43.98"/><rect class="cls-16" x="2231.76" y="1251.42" width="43.82" height="43.98"/><rect class="cls-16" x="2231.76" y="1329.44" width="43.82" height="43.98"/><path class="cls-16" d="M2545,1177.27H2306.77a3,3,0,0,0,0,5.94H2545a3,3,0,0,0,0-5.94Z"/><path class="cls-16" d="M2545,1206.63H2306.77a3,3,0,0,0,0,5.95H2545a3,3,0,0,0,0-5.95Z"/><path class="cls-16" d="M2545,1256.07H2306.77a3,3,0,0,0,0,6H2545a3,3,0,0,0,0-6Z"/><path class="cls-16" d="M2545,1285.44H2306.77a3,3,0,0,0,0,6H2545a3,3,0,0,0,0-6Z"/><path class="cls-16" d="M2545,1333.77H2306.77a3,3,0,0,0,0,6H2545a3,3,0,0,0,0-6Z"/><path class="cls-16" d="M2545,1363.14H2306.77a3,3,0,0,0,0,5.94H2545a3,3,0,0,0,0-5.94Z"/><rect class="cls-16" x="2619.48" y="1149.3" width="178.38" height="243.98"/><path class="cls-20" d="M2708.67,1137.69a16.56,16.56,0,1,0,16.49,16.55A16.52,16.52,0,0,0,2708.67,1137.69Z"/><path class="cls-21" d="M2775.53,1202.16H2641.81a3.49,3.49,0,0,0,0,7h133.72a3.49,3.49,0,0,0,0-7Z"/><path class="cls-21" d="M2775.53,1235H2641.81a3.49,3.49,0,0,0,0,7h133.72a3.49,3.49,0,0,0,0-7Z"/><path class="cls-21" d="M2775.53,1267.81H2641.81a3.49,3.49,0,0,0,0,7h133.72a3.49,3.49,0,0,0,0-7Z"/><path class="cls-21" d="M2775.53,1300.62H2641.81a3.49,3.49,0,0,0,0,7h133.72a3.49,3.49,0,0,0,0-7Z"/><path class="cls-21" d="M2775.53,1333.45H2641.81a3.49,3.49,0,0,0,0,7h133.72a3.49,3.49,0,0,0,0-7Z"/><rect class="cls-19" x="2622.28" y="889.39" width="175.98" height="28.38" rx="14.19"/><path class="cls-19" d="M2784.07,951.67h-147.6a14.19,14.19,0,1,0,0,28.38h147.6a14.19,14.19,0,1,0,0-28.38Z"/><rect class="cls-19" x="2622.28" y="1013.95" width="175.98" height="28.38" rx="14.19"/><path class="cls-22" d="M2732.42,525h-141a48.2,48.2,0,0,0-48,48.15V714.6a48.21,48.21,0,0,0,48,48.15h141a48.21,48.21,0,0,0,48-48.15V573.11A48.2,48.2,0,0,0,2732.42,525Z"/><g class="cls-14"><path class="cls-23" d="M2673.86,563.24c-.39,0-.39,33.23-.39,33.23a49.33,49.33,0,0,1,35.68,35.79h33.1C2742.27,594,2711.64,563.24,2673.86,563.24Z"/><path class="cls-16" d="M2661.47,693.63a49.32,49.32,0,0,1,0-98.64V562.32a81.54,81.54,0,1,0,81.7,82h-32.55A49.23,49.23,0,0,1,2661.47,693.63Z"/></g><path class="cls-8" d="M1129.19,1781.09c-78-13.54-128.74,77.69-10.27,243.17s152.29,411.27,152.29,411.27l38.33-9.8C1407,1930.83,1207.19,1794.62,1129.19,1781.09Z"/><path class="cls-9" d="M1206.79,1957.33c-48.67-101.47-100.41-151.24-100.92-151.73l-2.29,2.42c.52.48,51.9,49.94,100.3,150.93,44.68,93.21,95.88,250.63,86.11,471.28l3.31.15c4.33-97.77-2.81-191.44-21.24-278.41C1257.31,2082.38,1235.35,2016.89,1206.79,1957.33Z"/><path class="cls-9" d="M915.89,1980.2c-67.65,18.63-74.09,111,83,198.94s276.52,272.31,276.52,272.31l27.07-22.35C1194.92,1995.31,983.53,1961.58,915.89,1980.2Z"/><path class="cls-9" d="M1413,1936.49c-215,106.32-114.07,504.92-114.07,504.92l14.32-3s30.09-99.86,53-170.47,49.26-106,160.35-181S1628,1830.18,1413,1936.49Z"/><path class="cls-8" d="M1436.89,2191.35c-113.55,37-127.32,250.47-127.32,250.47l21.73,3.07s20-53.82,65.09-88,72.64-14.49,136.36-2.41,98.53-32.25,98.6-71.81S1550.45,2154.3,1436.89,2191.35Z"/><path class="cls-8" d="M1044.29,2092.24c-77.13-63-137.31-83.36-137.91-83.56l-.92,2.8c.59.2,60.37,20.45,137.1,83.15,70.82,57.88,171,164.8,246,345.47l2.72-1.13c-33.22-80.06-74.12-152.49-121.54-215.28C1131.75,2173.44,1089.55,2129.21,1044.29,2092.24Z"/><path class="cls-8" d="M1377.76,2073.69c-27.67,42.08-48.09,95.38-60.71,158.43-21.45,107.25-12.71,207-12.62,207.94l2.93-.27c-.09-1-8.79-100.32,12.59-207.15,19.68-98.36,69.62-223.42,195.86-260.53l-.83-2.84C1458.59,1985.87,1412.42,2021,1377.76,2073.69Z"/><path class="cls-9" d="M1451.26,2238.49c-21.24,6.75-41.57,21.73-60.45,44.52-15,18.14-29.18,41.27-42.06,68.73a550,550,0,0,0-32.8,90.83l2.86.7a546.86,546.86,0,0,1,32.62-90.32c20-42.69,53.75-96.7,100.72-111.65,35.34-11.24,73.68.92,113.95,36.13l1.94-2.23C1526.93,2239.27,1487.64,2226.91,1451.26,2238.49Z"/><path class="cls-8" d="M1175.39,2172.44c-106.58-54-205.15,22.64-211.12,61.74s-5.4,85.41,59.42,83.25,91-52.81,130.42-12.12,66.18,141.54,66.18,141.54l42.74-7.35S1282,2226.48,1175.39,2172.44Z"/><path class="cls-9" d="M1207,2270.09c-15.17-25.41-33-43.33-52.94-53.27-34.2-17-74.91-10.84-121,18.36l1.57,2.49c45.16-28.61,84.91-34.74,118.12-18.21,44.13,22,69.22,80.54,82.51,125.8a546.18,546.18,0,0,1,18.47,94.27l2.93-.26a549.55,549.55,0,0,0-18.56-94.79C1229.5,2315.36,1219,2290.33,1207,2270.09Z"/><path class="cls-22" d="M1442.59,2351.86H1151c-7.88,0-14,8.5-12.91,18.07l30.21,277.22c3.09,28.32,22.8,49.47,46.11,49.47h169.8c23.7,0,43.61-21.84,46.23-50.71l25.1-276.32C1456.39,2360.13,1450.35,2351.86,1442.59,2351.86Z"/><polygon class="cls-24" points="1154.32 2518.93 1441.96 2518.93 1444.52 2493.99 1152.1 2494.82 1154.32 2518.93"/><path class="cls-24" d="M1149.74,2481c1.06.83,295.6-1.24,295.6-1.24l1.42-11.59-297.37,1.24Z"/><ellipse class="cls-25" cx="3282.43" cy="1057.59" rx="327.86" ry="328.99"/><ellipse class="cls-16" cx="3282.43" cy="1057.59" rx="275.95" ry="276.9"/><path class="cls-26" d="M3282.43,1022.13a35.46,35.46,0,1,0,35.33,35.46A35.4,35.4,0,0,0,3282.43,1022.13Z"/><rect class="cls-18" x="3271.88" y="795.5" width="21.18" height="40.14"/><rect class="cls-18" x="3271.79" y="1279.54" width="21.18" height="40.14"/><polygon class="cls-18" points="3142.7 835.89 3162.7 870.66 3181.04 860.04 3161.05 825.27 3142.7 835.89"/><polygon class="cls-18" points="3383.81 1255.13 3403.81 1289.9 3422.15 1279.28 3402.15 1244.51 3383.81 1255.13"/><polygon class="cls-18" points="3050.96 935.7 3085.6 955.77 3096.19 937.37 3061.55 917.3 3050.96 935.7"/><polygon class="cls-18" points="3468.66 1177.8 3503.3 1197.88 3513.89 1179.48 3479.26 1159.4 3468.66 1177.8"/><rect class="cls-18" x="3021.24" y="1046.91" width="40" height="21.25"/><rect class="cls-18" x="3503.61" y="1047.01" width="40" height="21.25"/><polygon class="cls-18" points="3050.91 1179.38 3061.5 1197.79 3096.14 1177.73 3085.56 1159.32 3050.91 1179.38"/><polygon class="cls-18" points="3468.71 937.45 3479.29 955.85 3513.94 935.79 3503.36 917.38 3468.71 937.45"/><polygon class="cls-18" points="3142.62 1279.22 3160.96 1289.85 3180.96 1255.1 3162.63 1244.47 3142.62 1279.22"/><polygon class="cls-18" points="3383.89 860.08 3402.23 870.71 3422.23 835.95 3403.9 825.32 3383.89 860.08"/><path class="cls-25" d="M3451,884.3l-170.1,166-164.59-59.5a6.29,6.29,0,0,0-4.27,11.83l168.29,60.83a6.31,6.31,0,0,0,6.53-1.42l172.92-168.79a6.28,6.28,0,1,0-8.78-9Z"/><path class="cls-26" d="M3455.35,874.78a14,14,0,1,0,14,14A14,14,0,0,0,3455.35,874.78Z"/><path class="cls-26" d="M3114.14,983.12a14,14,0,1,0,14,14A14,14,0,0,0,3114.14,983.12Z"/><rect class="cls-27" x="2006.12" y="1545.34" width="751.75" height="1094.8" rx="10"/><path class="cls-16" d="M2148.66,1619.26a132,132,0,0,0-23.62,2v103h11.34v-42.86a42.73,42.73,0,0,0,10.64,1c18.42,0,37.94-8.77,37.94-33.29C2185,1640.9,2182.23,1619.26,2148.66,1619.26Zm-1.37,53.82a41.27,41.27,0,0,1-10.91-1.09v-42.45a59.63,59.63,0,0,1,12.41-1.1c14.2,0,24.84,6.57,24.84,21.5S2163.67,1673.08,2147.29,1673.08Z"/><polygon class="cls-16" points="2227.82 1619.95 2216.49 1619.95 2216.49 1724.3 2270.81 1724.3 2270.81 1714.57 2227.82 1714.57 2227.82 1619.95"/><path class="cls-16" d="M2326.08,1620l-34.39,104.35h11.6l10.92-33.83h36.17l11.19,33.83h12L2339.18,1620Zm-9.55,61.49,10.37-31.37c1.92-6.57,3.82-13.14,5.19-19.45h.41c1.36,6.17,3.14,12.74,5.33,19.87l10.23,31Z"/><path class="cls-16" d="M2464.89,1665.41c0,16.44.27,28.9,1.37,43.42l-.28.12c-4.77-10.81-10.78-21.63-18.15-34.09L2414.26,1620h-11.88V1724.3H2413v-46c0-18.08-.13-30.27-1.09-43.56l.55-.13c5.05,11.5,11.73,23.14,18.7,34.79l33.15,54.91h11.34V1620h-10.79Z"/><path class="cls-28" d="M2135.57,1868.38a33.56,33.56,0,1,0,33.44,33.56A33.5,33.5,0,0,0,2135.57,1868.38Z"/><path class="cls-29" d="M2643.68,1880.32H2228.1a21.63,21.63,0,0,0,0,43.25h415.58a21.63,21.63,0,0,0,0-43.25Zm0,36.48H2228.1a14.86,14.86,0,0,1,0-29.72h415.58a14.86,14.86,0,0,1,0,29.72Z"/><path class="cls-28" d="M2135.57,2021.51a33.56,33.56,0,1,0,33.44,33.55A33.49,33.49,0,0,0,2135.57,2021.51Z"/><path class="cls-29" d="M2643.68,2033.44H2228.1a21.63,21.63,0,0,0,0,43.25h415.58a21.63,21.63,0,0,0,0-43.25Zm0,36.49H2228.1a14.87,14.87,0,0,1,0-29.73h415.58a14.87,14.87,0,0,1,0,29.73Z"/><path class="cls-28" d="M2135.57,2174.63a33.56,33.56,0,1,0,33.44,33.56A33.5,33.5,0,0,0,2135.57,2174.63Z"/><path class="cls-29" d="M2643.68,2186.56H2228.1a21.63,21.63,0,0,0,0,43.25h415.58a21.63,21.63,0,0,0,0-43.25Zm0,36.49H2228.1a14.87,14.87,0,0,1,0-29.73h415.58a14.87,14.87,0,0,1,0,29.73Z"/><path class="cls-28" d="M2135.57,2327.75a33.56,33.56,0,1,0,33.44,33.56A33.5,33.5,0,0,0,2135.57,2327.75Z"/><path class="cls-29" d="M2643.68,2339.68H2228.1a21.63,21.63,0,0,0,0,43.25h415.58a21.63,21.63,0,0,0,0-43.25Zm0,36.49H2228.1a14.86,14.86,0,0,1,0-29.72h415.58a14.86,14.86,0,0,1,0,29.72Z"/><path class="cls-28" d="M2135.57,2480.88a33.56,33.56,0,1,0,33.44,33.55A33.49,33.49,0,0,0,2135.57,2480.88Z"/><path class="cls-29" d="M2643.68,2492.81H2228.1a21.63,21.63,0,0,0,0,43.25h415.58a21.63,21.63,0,0,0,0-43.25Zm0,36.49H2228.1a14.87,14.87,0,0,1,0-29.73h415.58a14.87,14.87,0,0,1,0,29.73Z"/><rect class="cls-29" x="2036.86" y="1765.2" width="690.28" height="6.76"/><path class="cls-30" d="M3507.35,1732.76c-49.8,7.76-88.64,23.61-86.74,35.41s43.8,15.07,93.61,7.31,98.21-25.82,96.32-37.61S3557.16,1725,3507.35,1732.76Z"/><path class="cls-30" d="M2841.5,2209.32a3.17,3.17,0,0,0-4.16,1.56l-223.66,490.9a3.08,3.08,0,0,0,1.58,4.09,3.13,3.13,0,0,0,1.29.28,3.16,3.16,0,0,0,2.87-1.83l223.66-490.91A3.08,3.08,0,0,0,2841.5,2209.32Z"/><polygon class="cls-31" points="2713.37 2544.01 2741.96 2638.35 2823.42 2634.22 2797.57 2531.6 2713.37 2544.01"/><polygon class="cls-16" points="2730.64 2601 2741.96 2638.35 2823.42 2634.22 2814.05 2597.02 2730.64 2601"/><path class="cls-30" d="M3157.76,2201.71a3.16,3.16,0,0,0-3.91-2.09,3.1,3.1,0,0,0-2.12,3.85l153.76,510a3.14,3.14,0,0,0,3,2.22,3.13,3.13,0,0,0,3-4Z"/><path class="cls-32" d="M3040.74,2194.74a6.33,6.33,0,0,0-8.36,3L2793.71,2703.8a6.15,6.15,0,0,0,3.06,8.22,6.34,6.34,0,0,0,8.36-3L3043.8,2203A6.15,6.15,0,0,0,3040.74,2194.74Z"/><path class="cls-32" d="M3220.7,2417.3H2765.15a3.1,3.1,0,1,0,0,6.19H3220.7a3.1,3.1,0,1,0,0-6.19Z"/><path class="cls-30" d="M3364.87,2211.57a6.29,6.29,0,0,0-7.8-4.21,6.18,6.18,0,0,0-4.28,7.68l147.92,499.29a6.28,6.28,0,0,0,6,4.47,6.36,6.36,0,0,0,1.77-.25,6.18,6.18,0,0,0,4.27-7.68Z"/><path class="cls-32" d="M3418.41,2414.2H2962.86a6.2,6.2,0,1,0,0,12.39h455.55a6.2,6.2,0,1,0,0-12.39Z"/><path class="cls-33" d="M3288,1781.47l52,307.62,218.37-133.59s43.65-94.87-4.87-170.92S3288,1781.47,3288,1781.47Z"/><ellipse class="cls-34" cx="3013.24" cy="2205.4" rx="122.47" ry="27.53"/><polygon class="cls-31" points="2919.43 2532.88 2938.31 2628.59 3018.39 2627.23 3013.94 2535.12 2919.43 2532.88"/><polygon class="cls-16" points="2931.01 2591.61 2938.31 2628.59 3018.39 2627.23 3016.67 2591.57 2931.01 2591.61"/><path class="cls-23" d="M3313.18,1943.51s-630.39-97.41-754.79,59.29,108.36,563.55,108.36,563.55l153.71-.89-63.52-400.91s471.75,68.29,584.22-34.16S3313.18,1943.51,3313.18,1943.51Z"/><path class="cls-35" d="M2785.3,2059.91c-67.93,1.2-109.69,13-124.15,35.08-34.25,52.31,90.53,410.8,95.86,426l2-.67c-1.3-3.72-129.78-372.77-96.08-424.24s217.93-29.61,219.78-29.38l.26-2.05A802.75,802.75,0,0,0,2785.3,2059.91Z"/><path class="cls-36" d="M3331.39,1992.52s-472.84-132.4-496,5.39,312.09,228.91,312.09,228.91,100.14-52.68,181.56-149.42S3331.39,1992.52,3331.39,1992.52Z"/><path class="cls-36" d="M2899.24,1951.35c-195.88-6-.65,610.91-.65,610.91l132.9,6.35S3095.11,1957.38,2899.24,1951.35Z"/><path class="cls-23" d="M3005,2058.69c-52.62,45.08-24.85,442.92-23.64,459.83l2.09-.14c-.07-1-7.39-104.65-8.16-212.46-1-142.42,9.72-227.37,31.09-245.68,51.72-44.31,190.22,12.23,191.61,12.81l.81-1.9a496.21,496.21,0,0,0-76.73-23.35C3083.91,2039.71,3032.62,2035,3005,2058.69Z"/><path class="cls-30" d="M3078,1656.09c-28.18-21.49-51.82-26.31-64.14-22-5.14,7.67,9.06,34.74,37.24,56.23s57,31.24,64.46,21.8S3106.19,1677.57,3078,1656.09Z"/><path class="cls-37" d="M2781.58,1549.54c-5.22,2-6.56,15.08,9.32,25.27a137.75,137.75,0,0,1,27.16,23.41s-.57,5.93,7.34,26.11,33.86,36.75,33.86,36.75c17.52,5.08-7.82-55.77-20.6-72.4S2786.79,1547.54,2781.58,1549.54Z"/><path class="cls-37" d="M2984.49,1680.38l-150.48-61L2800.76,1647S2942,1838.41,3004.89,1825.3c33.73-7,73.77-88.83,73.77-88.83l22.5-49.77c-33.23-27.68-49.52-37.83-69.49-48.64Z"/><path class="cls-22" d="M3520.67,1534.22c-41-23.5-125.93-46-125.93-46l-98.64,40,1.21-37s-48.83-1.76-122.35,24.35-161.1,118.49-161.1,118.49c11.5-4,46.36,18.86,87.3,52.62l-108.23,227.58c221.55,8.57,210.57,218.47,426.58,88l42.29-235.4c40.78-13.45,130.71-49,148.74-29C3610.54,1737.87,3561.68,1557.72,3520.67,1534.22Z"/><path class="cls-24" d="M3061.66,1656.3c11.61,8.15,24.58,18.15,38.25,29.39l.5-.13c17.38-41.76,34.94-79.92,52.86-110.89C3122.2,1596.55,3091.78,1625,3061.66,1656.3Z"/><path class="cls-38" d="M3031.67,1638.06l-7.09,6.36h0c24.51,9.93,57,52.7,59,80.71l17.57-38.43c-7.68-6.19-14.13-11.43-19.76-16C3060.57,1654.53,3047.22,1646.48,3031.67,1638.06Z"/><path class="cls-24" d="M3034.17,1614l-2.35,2.25c19.41-2.11,55.5,14.52,80.44,45.36l1.64-1.28C3094.78,1636.66,3059.55,1613,3034.17,1614Z"/><path class="cls-24" d="M3137.48,1600.48c-16.83,33.7-31.12,67.49-38.17,84.71l1.7,1.39c15.57-38,68.63-162,105.31-181q-3.37,1-6.85,2C3182.79,1520.24,3162,1551.32,3137.48,1600.48Z"/><path class="cls-39" d="M3096.55,1697.64c.09-.23,1.23-3.12,3.21-8l-3.71,7.81Z"/><path class="cls-24" d="M3461.65,1637.05s-83.92,72-121.26,199.1-183.83,74.31-290.45,28c-15-6.5-26.19-3.84-34.52,2.83l-22.49,47.31h0c1.72.06,3.43.14,5.12.23l1.34.08,3.72.23.95.07,4.05.31.39,0c154.76,13.16,193.28,127.68,292.65,129.62,31.21-.65,68.81-12.66,118.36-42.59l42.29-235.4h0l.42-.15.74-.24C3461.07,1766.5,3459.77,1637.07,3461.65,1637.05Z"/><path class="cls-25" d="M3155.52,2125.3c-62.86,98-118.78,107.26-118.78,107.26l224.24-2.94c104.82-1.35,199.53-61.86,243.46-155.56l53.94-118.56C3364.56,1929.71,3218.38,2027.33,3155.52,2125.3Z"/><path class="cls-40" d="M3437.12,1977.38c-111.75,16.32-172.72,59.51-204.18,92.86-38.21,40.5-63.34,73.56-83.53,100.12-21.27,28-36.61,48.16-55.29,61.45l3.65,0c17.78-13.42,32.83-33.2,53.32-60.16,20.16-26.52,45.26-59.54,83.38-99.95,56.59-60,141.58-83.26,202.91-92.22a604.6,604.6,0,0,1,112.67-5.64l.92-2A605.46,605.46,0,0,0,3437.12,1977.38Z"/><path class="cls-37" d="M3226.6,1762.81s-6.53-7-15.41-15.48C3219.47,1756.14,3226.6,1762.81,3226.6,1762.81Z"/><path class="cls-37" d="M3462.92,1766.35l6,60.82s-114,8.36-161.8-21.23c-12.32-27.83-28.36-80.09-39.79-82.21s-8.22,43.4-8.22,43.4-59.72-69.87-71.32-60.68c-7.25,5.74,9.64,26.26,23.37,40.88,8.88,8.53,15.41,15.48,15.41,15.48s-7.13-6.67-15.41-15.48c-15.86-15.26-39.22-35.59-46.14-30.29-10.78,8.26,47.66,67.49,47.66,67.49s-54.15-52.16-60.51-41.08,49.11,65.68,49.11,65.68-49.22-39.62-50.27-27.33S3201,1834,3201,1834s20,23.18,72.09,47.56,247.75,83,290.24,45.81,9.27-193.41,9.27-193.41C3530.18,1739.23,3486.24,1757.92,3462.92,1766.35Z"/><path class="cls-38" d="M3463.57,1766.12l-.63.37,1.21,9c22.42-5.73,86.78-23.37,113.39-13.91-2.63-16.74-4.95-27.65-4.95-27.65C3530.56,1739.19,3487,1757.58,3463.57,1766.12Z"/><polygon class="cls-38" points="3468.95 1827.17 3508.13 1826.35 3468.67 1810.88 3468.95 1827.17"/><path class="cls-38" d="M3259.14,1767.13l12.5,12.44c-9.22-11.92-11.34-27.1-11.91-43C3257.88,1749.4,3259.14,1767.13,3259.14,1767.13Z"/><path class="cls-24" d="M3485,1520.32c-14.86,16-23.3,63-25.1,139.77-1.14,48.41.87,94.22,1.59,108.5l.31-1.72,1.71-.58c-1.76-36.76-8.37-212.45,23.53-245.06Z"/><polygon class="cls-41" points="2925.93 2564.48 3016.26 2583.07 3015.53 2568.06 2925.93 2564.48"/><polygon class="cls-41" points="2720.08 2566.15 2809.47 2578.41 2805.51 2565.46 2720.08 2566.15"/><path class="cls-37" d="M2820.94,1606.14c-4.58-7.74-24.78-4.22-24.78-4.22s15.39-3.89,6.6-11.3-23.8-2.14-23.8-2.14,14.08-8.89,8.73-14.41-25.54,2.29-25.54,2.29.07-7.58-6-7.36-37.84,13-41.58,21.09,1.33,25.88,18.93,45.44c19.31,21.45,74.44,35.08,84.72,21.06l-22.48-26.42S2825.52,1613.88,2820.94,1606.14Z"/><path class="cls-42" d="M2796.11,1630l-15.17,6.68c-1.53.68-.2,2.91,1.33,2.23l15.15-6.68-1.71-2Z"/><path class="cls-38" d="M2766.1,1612.8a212.08,212.08,0,0,1,32.22-11.18c-1.33.16-2.16.3-2.16.3s6-1.52,8.37-4.47a216.88,216.88,0,0,0-39.76,13.12C2763.24,1611.25,2764.57,1613.48,2766.1,1612.8Z"/><path class="cls-38" d="M2750.47,1598.83a1.3,1.3,0,0,0,1.32,2.23,175.86,175.86,0,0,1,29.9-13.35c-1.68.4-2.73.77-2.73.77a42.49,42.49,0,0,0,5.68-4.47A178.25,178.25,0,0,0,2750.47,1598.83Z"/><path class="cls-38" d="M2761.79,1573.76l-3.25,1.18a1,1,0,0,0-.41,0c-1.88.71-3.54,2-5.56,2.17l-3.47,1.68c-4.23,1.88-8.4,3.88-12.47,6.08-1.48.8-.16,3,1.32,2.23a174.2,174.2,0,0,1,29-12.41c-2.85.87-4.8,1.63-4.8,1.63A11.71,11.71,0,0,0,2761.79,1573.76Z"/><path class="cls-38" d="M2764.51,1610.7a80.45,80.45,0,0,0-6.82,27.54c-.11,1.66,2.51,1.66,2.62,0a76.82,76.82,0,0,1,6.47-26.24C2767.45,1610.5,2765.19,1609.18,2764.51,1610.7Z"/><path class="cls-38" d="M2749.88,1600.18a152.92,152.92,0,0,0-7.5,27.12c-.29,1.62,2.24,2.32,2.53.68a153.15,153.15,0,0,1,7.5-27.12C2753,1599.31,2750.46,1598.63,2749.88,1600.18Z"/><path class="cls-38" d="M2735.68,1586.51a141.74,141.74,0,0,0-6.11,29.94c-.16,1.65,2.46,1.64,2.62,0a138.67,138.67,0,0,1,6-29.26C2738.72,1585.6,2736.19,1584.93,2735.68,1586.51Z"/><path class="cls-24" d="M3577.45,1698.32c-35.51-3.67-98.77,17-116.54,34.41l1.48,1.46c17.48-17.08,79.82-37.45,114.84-33.82a41.54,41.54,0,0,1,13.57,3.43q-.37-1.27-.78-2.58A46.49,46.49,0,0,0,3577.45,1698.32Z"/><path class="cls-24" d="M3272.89,1492.07s-20.35,81.38,24.16,86.39,106.19-13.15,126.54-81.38l-54.05-18.15Z"/><path class="cls-32" d="M2816,2618c-13.61,23.77-49.31,13.78-49.31,13.78s-22.18-28.67-37.25-20,2.15,25.2-17.22,40c-14.85,11.3-33.45,4.8-55.41,8.94a68.41,68.41,0,0,0-21,7.57c-17,9.49-23.81,22.84-26.48,33a46.7,46.7,0,0,0-1.5,14.77h221.72a98,98,0,0,0,.47-10.22c0-1.53-.11-3-.08-4.55C2830.51,2671.39,2829.91,2608.78,2816,2618Z"/><path class="cls-16" d="M2710.84,2652.09c-2.24.06-2.25,3.49,0,3.43a19.28,19.28,0,0,1,16.25,7.73c1.31,1.77,4.33.06,3-1.73A22.92,22.92,0,0,0,2710.84,2652.09Z"/><path class="cls-16" d="M2699.82,2654.94c-2.23.06-2.24,3.48,0,3.42a19.26,19.26,0,0,1,16.25,7.74c1.31,1.76,4.34.05,3-1.73A22.92,22.92,0,0,0,2699.82,2654.94Z"/><path class="cls-16" d="M2686.94,2655.66c-2.23.06-2.24,3.49,0,3.43a19.26,19.26,0,0,1,16.25,7.74c1.31,1.76,4.34.05,3-1.73A22.93,22.93,0,0,0,2686.94,2655.66Z"/><path class="cls-43" d="M2824.69,2645.28a99.82,99.82,0,0,0-53.6,58.39c-1.06,3,3.83,4.34,4.88,1.32a95,95,0,0,1,51.27-55.41C2830.2,2648.26,2827.63,2644,2824.69,2645.28Z"/><path class="cls-43" d="M2607.83,2716.08h221.72a98,98,0,0,0,.47-10.22v-4.55H2609.33A46.7,46.7,0,0,0,2607.83,2716.08Z"/><path class="cls-44" d="M3022.17,2602c-14.69,25.65-53.22,14.86-53.22,14.86s-23.94-30.94-40.2-21.56,2.32,27.2-18.59,43.15c-16,12.19-36.11,5.18-59.81,9.64a73.82,73.82,0,0,0-22.68,8.18c-18.4,10.24-25.69,24.65-28.57,35.64a50.36,50.36,0,0,0-1.63,16h239.32a108,108,0,0,0,.51-11c0-1.65-.13-3.27-.09-4.92C3037.82,2659.64,3037.17,2592.07,3022.17,2602Z"/><path class="cls-16" d="M2908.66,2638.81c-2.42.07-2.43,3.77,0,3.7a20.83,20.83,0,0,1,17.54,8.35c1.41,1.91,4.67.06,3.24-1.87A24.74,24.74,0,0,0,2908.66,2638.81Z"/><path class="cls-16" d="M2896.77,2641.88c-2.42.07-2.43,3.77,0,3.7a20.83,20.83,0,0,1,17.54,8.35c1.41,1.91,4.67.06,3.24-1.87A24.74,24.74,0,0,0,2896.77,2641.88Z"/><path class="cls-16" d="M2882.87,2642.67c-2.42.06-2.43,3.76,0,3.7a20.79,20.79,0,0,1,17.54,8.35c1.41,1.9,4.67.06,3.24-1.87A24.74,24.74,0,0,0,2882.87,2642.67Z"/><path class="cls-33" d="M3031.54,2631.46a107.77,107.77,0,0,0-57.85,63c-1.14,3.29,4.13,4.68,5.26,1.43a102.48,102.48,0,0,1,55.35-59.8C3037.49,2634.67,3034.71,2630,3031.54,2631.46Z"/><path class="cls-33" d="M2797.47,2707.88h239.32a108,108,0,0,0,.51-11v-4.92H2799.1A50.36,50.36,0,0,0,2797.47,2707.88Z"/><path class="cls-45" d="M3416.25,1273.07l-8.06,57.71s.33,10.94.68,12.25,19.17,10.61,19.17,10.61l12.38-12.1s-.13-36.68-.6-38.33S3416.25,1273.07,3416.25,1273.07Z"/><path class="cls-37" d="M3295.75,1491.19s11.87,7.19,48.48,13.8c30.8,5.56,53.74-12.44,53.74-12.44l9.14-116.34L3307,1379.53Z"/><polygon class="cls-38" points="3295.68 1491.74 3371.91 1437.39 3298.92 1459.68 3295.68 1491.74"/><path class="cls-37" d="M3233.56,1407.86a20,20,0,0,0,6.7,17l36.67,31.94a19.53,19.53,0,0,0,18.7,4l76.56-23.36a20,20,0,0,0,14-17.09l14.46-143.3-152.3-15.48Z"/><path class="cls-46" d="M3240.89,1335.29l-5.82,57.6a28.95,28.95,0,0,0,5.82-57.6Z"/><path class="cls-47" d="M3296.49,1367.8l-19.62-2,12.22-59.45a2.21,2.21,0,1,0-4.33-.9L3272,1367.32a2.24,2.24,0,0,0,.39,1.76,2.18,2.18,0,0,0,1.55.9l22.06,2.24a2.22,2.22,0,0,0,.45-4.42Z"/><path class="cls-37" d="M3420.75,1340.31a36.63,36.63,0,1,0,32.55,40.13A36.5,36.5,0,0,0,3420.75,1340.31Z"/><path class="cls-46" d="M3353.17,1344.76a29,29,0,1,0,25.72,31.71A28.83,28.83,0,0,0,3353.17,1344.76Z"/><path class="cls-48" d="M3325.38,1319.16c-3.37-.27-6.47,4.24-6.93,10.06s1.92,10.76,5.29,11,6.47-4.25,6.93-10.07S3328.75,1319.42,3325.38,1319.16Z"/><path class="cls-48" d="M3263.54,1312.87c-3.38-.26-6.48,4.24-6.93,10.07s1.92,10.76,5.29,11,6.47-4.24,6.92-10.07S3266.91,1313.13,3263.54,1312.87Z"/><path class="cls-47" d="M3428,1356.2a39,39,0,0,0-13.45,3.32c-9.06,4.19-13.69,11.52-13.4,21.21.2,6.3,1.64,11.64,4.3,15.88a2.16,2.16,0,0,0,1.64,1,2.14,2.14,0,0,0,1.4-.33,2.21,2.21,0,0,0,.69-3.06c-2.23-3.56-3.44-8.15-3.61-13.65-.58-18.84,21.64-19.91,22.59-19.95a2.22,2.22,0,0,0-.16-4.44Z"/><path class="cls-47" d="M3425.24,1376c-4.39-3.56-15-7.46-23.6,3.27a2.24,2.24,0,0,0,.33,3.13,2.19,2.19,0,0,0,1.16.48,2.23,2.23,0,0,0,1.95-.81c7.85-9.75,16.43-3.37,17.39-2.61a2.19,2.19,0,0,0,3.1-.34A2.23,2.23,0,0,0,3425.24,1376Z"/><path class="cls-49" d="M3233,1265.19c-9,33.72,9.39,56.91,9.39,56.91l4.08-43.24C3238.57,1277.3,3233,1265.19,3233,1265.19Z"/><path class="cls-45" d="M3400,1210.37c-33.17-81.12-122.87-67-153.16-31.72s-21.86,86.64-5.7,101.41,34.36-.55,44-6.63,16,1.12,16,1.12c10.52,10.66,35,17.7,35,17.7,34,8,71.94-33.08,71.94-33.08,20,12.13,32.2,82.37,32.2,82.37,47.22-45.94,23.46-101.94,23.46-101.94C3442.71,1184.43,3400,1210.37,3400,1210.37Z"/><path class="cls-50" d="M3432.19,1218.3c-15.61-4.64-31,5.43-35.51,8.78-21.33-26.7-54.89-46.34-55.27-46.56-58.09-32-106.74,18.44-107.26,19l-2,5.16c.51-.53,51.76-52.13,107.7-21.3.34.19,34.43,20.16,55.31,47l1,1.32,1.29-1.06c.17-.14,17.27-14.11,33.83-9.19,10.87,3.22,32.85,31,38.45,48.69l-.47-6.89C3463.3,1244.46,3444.15,1221.84,3432.19,1218.3Z"/><path class="cls-50" d="M3430.91,1240.15c-8.6-6.68-20.18-8.1-30.94-3.81-18.59,7.4-53.51-12.39-53.88-12.59-52.13-29.29-118.42,10.21-119.1,10.62l-.1,3.64c.66-.39,67.13-39.77,117.61-11.42,1.49.85,36.65,20.75,56.66,12.79,9.69-3.86,20.08-2.61,27.76,3.36,9,7,29,44.07,24.17,83.73l2.31-2.86C3460.38,1282.42,3440.6,1247.67,3430.91,1240.15Z"/><path class="cls-50" d="M3417.81,1244.62c-10.12-3.5-23.12,5.73-30.89,11.24l-.3.21c-9.77,6.91-47.3,13.47-81.24.82-33.73-12.57-73.68,2.25-75.37,2.89l1.14,3.06c.41-.15,40.52-15,73.1-2.89s72.22,7.29,84.23-1.21l.3-.21c7.27-5.15,19.43-13.77,28-10.82,3.88,1.33,6.78,5.09,8.63,11.14,6.78,22.32-4.19,74.79-8.4,81.16l4.44.29c4.63-7,14.24-58.77,7.06-82.4C3426.31,1250.78,3422.72,1246.31,3417.81,1244.62Z"/><path class="cls-45" d="M3417.51,1340l3.24.35A16.4,16.4,0,0,0,3417.51,1340Z"/><path class="cls-45" d="M3411.46,1255.75c-.63-.06-3.7-1.18-9.5,4.17s-15.18,9.84-15.83,11.54,1.37,4.84,1.37,4.84,9.09,57.36,3.63,73.48c0,0,14.77-10,26.38-9.82l-7.93-.86,13.91-27.29s.08-16.51.77-17.08,1.17-21,1.17-21S3412.09,1255.82,3411.46,1255.75Z"/><path class="cls-45" d="M3392.48,1267c-3.35,1.59-10.27,10.18-10.27,10.18s-8.21,59.24,8.92,72.63c0,0,11-24.1,11.49-25.34s10.55-47.67,10.55-47.67S3395.83,1265.39,3392.48,1267Z"/><path class="cls-51" d="M3327.31,1294.77c-.69,8.4,26.32,16.68,28.5,9.16C3359.42,1291.46,3328.41,1281.46,3327.31,1294.77Z"/><path class="cls-51" d="M3244.09,1290.12c3.15,7.09,28.6,1.69,27-5.34C3268.54,1273.11,3239.11,1278.9,3244.09,1290.12Z"/><path class="cls-16" d="M3257.87,1297.93c-14.38-1.46-27.3,9.51-28.8,24.45s8.95,28.28,23.33,29.74,27.29-9.51,28.8-24.45S3272.24,1299.39,3257.87,1297.93Zm21,29.51c-1.38,13.63-13.14,23.64-26.21,22.31s-22.6-13.5-21.22-27.14,13.13-23.64,26.21-22.31S3280.22,1313.8,3278.85,1327.44Z"/><path class="cls-16" d="M3336.43,1303.7c-15.67-1.59-29.74,10.25-31.37,26.4s9.79,30.58,25.46,32.17,29.74-10.25,31.37-26.39S3352.1,1305.3,3336.43,1303.7Zm22.91,31.92c-1.49,14.73-14.3,25.54-28.56,24.09s-24.66-14.62-23.17-29.35,14.3-25.54,28.56-24.09S3360.83,1320.89,3359.34,1335.62Z"/><path class="cls-16" d="M3279.06,1322.9l1.84,1.85c.43-.42,10.59-10.25,25.39,3.54l1.78-1.92C3291.36,1310.8,3279.18,1322.78,3279.06,1322.9Z"/><polygon class="cls-16" points="3360.19 1340.59 3390.92 1348.33 3391.54 1345.82 3360.81 1338.09 3360.19 1340.59"/><path class="cls-37" d="M3369.54,1478.93l-73.86,12.81s-2.54,33.41,25.12,38.31,59-5.72,68.33-20.82,8.54-18,8.54-18Z"/><path class="cls-52" d="M3297.94,1395.07c-4-8.39-17.87-13.33-24-4.48-.22.32-.43.66-.63,1a24.74,24.74,0,0,0-2.74,10.61,20,20,0,0,0,1.11,9.22,9.35,9.35,0,0,0,1.51,2.4c2,2.32,5.14,3.22,8.13,3.47s6,0,9,.37c2.06.28,4.31.87,6.1-.29,1.59-1,2.3-3.1,2.73-5,.17-.72.32-1.45.42-2.19a27.38,27.38,0,0,0-.52-12.3A17.26,17.26,0,0,0,3297.94,1395.07Z"/><path class="cls-53" d="M3272.32,1410.83c-.23.19-.45.4-.66.6a9.35,9.35,0,0,0,1.51,2.4c2,2.32,5.14,3.22,8.13,3.47s6,0,9,.37c2.06.28,4.31.87,6.1-.29,1.59-1,2.3-3.1,2.73-5,.17-.72.32-1.45.42-2.19a20.59,20.59,0,0,0-27.19.68Z"/><path class="cls-16" d="M3273.92,1390.59c-.22.32-.43.66-.63,1a28.13,28.13,0,0,0,7.7,4,43,43,0,0,0,18,2.24,17.26,17.26,0,0,0-1-2.78C3294,1386.68,3280.07,1381.74,3273.92,1390.59Z"/><path class="cls-54" d="M2795.71,1630.17l3.84,11.91,12.81-3.47,15.66-13.06-7.52-14.69C2816.43,1620.25,2795.71,1630.17,2795.71,1630.17Z"/><path class="cls-55" d="M3208,1925.42l-396-21.92a1.33,1.33,0,0,0-1.44,1.2l-2.52,45.5a1.33,1.33,0,0,0,1.31,1.35l396,21.92a1.34,1.34,0,0,0,1.45-1.2l2.51-45.5A1.33,1.33,0,0,0,3208,1925.42Z"/><path class="cls-56" d="M2881.48,1642.37,2703,1632.49c-17.67-1-31.38,13.8-27.7,29.83l60.31,262.35c3.13,13.62,15.75,23.67,30.76,24.5l213.13,11.8-73.1-299C2903.69,1651,2893.52,1643,2881.48,1642.37Z"/><path class="cls-16" d="M2799.7,1775.46c-14.45-.71-22.7,10.67-18.43,25.42s19.45,27.27,33.91,28,22.7-10.67,18.43-25.42S2814.15,1776.17,2799.7,1775.46Z"/><path class="cls-55" d="M2901.88,1643.49l-20.4-1.13c12.05.67,22.2,8.67,24.88,19.58l72.49,296.57,20.4,1.13-72.48-296.57C2924.08,1652.16,2913.93,1644.16,2901.88,1643.49Z"/><path class="cls-38" d="M2795.71,1630.17l-1.11,2.46,1.9-.14c20.34-13.47,24-21.63,24-21.63C2816.3,1617.93,2795.71,1630.17,2795.71,1630.17Z"/><path class="cls-57" d="M1926.76,1124.78c14.69,35.06,42.52,55.39,61.3,73.84l24.62-91.32L1959,1055.68Z"/><path class="cls-58" d="M1927,1124.78c14.7,35,42.25,55.4,61,73.83l20.57-72.74C1970.68,1115.17,1927,1124.78,1927,1124.78Z"/><path class="cls-57" d="M2129.59,1021.69c-11.54-2.82-34.26,5.72-34.26,5.72s20.63-42.3,15.79-45.1-11.55-4.17-24.08,18c0,0,6.13-17.89-3.57-19.47s-28,49.94-28,49.94l-26.81-2.76s14.21-30,6.28-37.56-13.91-4-14.66,4.52-4.39,25.35-17.81,28-30.55,7.29-43.48,32.74l52.7,52.43s6.39-14,12.69-16.07,35.58,3.71,45.72-7.45a89.29,89.29,0,0,0,14.91-22.32s27.9-19,45.45-25.15S2141.14,1024.51,2129.59,1021.69Z"/><path class="cls-59" d="M2072.06,1056.74l-1-.65-1.07-.49c.56-1.41,9.81-34.06,15.89-55.65l2.25.63C2072.58,1056,2072.19,1056.55,2072.06,1056.74Z"/><rect class="cls-59" x="2040.37" y="1041.18" width="24.06" height="2.34" transform="translate(516.19 2756.67) rotate(-75.06)"/><path class="cls-59" d="M1995.84,1056.85l-1.93-1.35c14.45-20.71,36.45-10,36.67-9.85l-1,2.1C2028.7,1047.33,2009.1,1037.82,1995.84,1056.85Z"/><path class="cls-59" d="M2129.59,1021.69c-11.54-2.82-34.26,5.72-34.26,5.72l-10.3,34.86s27.9-19,45.45-25.15S2141.14,1024.51,2129.59,1021.69Z"/><polygon class="cls-55" points="1247.53 2680.41 1240.41 2699.5 1469.77 2725.71 1469.24 2700.89 1247.53 2680.41"/><path class="cls-56" d="M1461.55,2593.64c.81-41.12,1.38-93.63,1.38-93.63L1385,2501s4.67,50.94,5.12,84.51c.59,43.3-20.54,58.74-75.9,77.55-21.5,7.31-41.73,13.94-63.41,18.25,17.51,4.89,48.81,8.08,85.51,11.28,63.24,5.45,132.93,8.36,132.93,8.36C1466.33,2690.75,1461,2621.35,1461.55,2593.64Z"/><path class="cls-60" d="M1390.11,2585.45l71.43,8.17c.81-41.12,1.38-93.63,1.38-93.63l-77.92,1S1389.66,2551.88,1390.11,2585.45Z"/><path class="cls-61" d="M1423.81,2580.78c-4.27-.31-8.14,1.61-11.39,4.21a90,90,0,0,0-10,9.74,120,120,0,0,0-15.18,20.73,18.44,18.44,0,0,0-.46-1.81,54.39,54.39,0,0,0-2.54-6.29A91.57,91.57,0,0,0,1378,2596a93.52,93.52,0,0,0-7.87-10.52c-2.61-3-5.76-5.91-9.68-7.08-6.39-1.9-14.17,1.88-13.87,9.14.17,4,2.73,7.61,5.25,10.6a91.7,91.7,0,0,0,8.73,9,95.3,95.3,0,0,0,21.44,14.26.81.81,0,0,0,0,.22,2.41,2.41,0,0,0-.26.39,2.32,2.32,0,0,0,1.3,2.93,110.9,110.9,0,0,1,16.71,10.89c1.38,1.08,3.32,2.8,5.08,1.41,2.14-1.68-.23-4-1.64-5.06-2.65-2-5.4-3.91-8.21-5.68q-2.62-1.65-5.33-3.15a45.18,45.18,0,0,0,10.28-2.51,65,65,0,0,0,11.61-5.14c7.33-4.16,15.25-9.92,19.52-17.33a13.5,13.5,0,0,0,1.46-11.31A9.8,9.8,0,0,0,1423.81,2580.78Zm-55.57,26.61c-5.59-4.22-11.39-9-15.56-14.7-1.92-2.62-3.79-6.64-1-9.33,2.17-2.05,5.64-2.21,8.32-1.21,3.46,1.29,6.1,4,8.43,6.8a81.25,81.25,0,0,1,6.36,8.63,92.86,92.86,0,0,1,6,10.85c.9,1.94,1.72,3.92,2.57,5.89.43,1,.93,2,1.42,3A92.58,92.58,0,0,1,1368.24,2607.39Zm59-9.91c-4.21,6.06-10.89,11.07-17.36,14.54a61.28,61.28,0,0,1-11.1,4.64c-3.11.94-6.34,1.29-9.49,2a136.5,136.5,0,0,1,11.17-16.12,121.53,121.53,0,0,1,8.4-9.33c2.74-2.74,5.6-5.71,9.07-7.55,3.24-1.73,8.24-2.37,10.56,1.15S1429.4,2594.43,1427.28,2597.48Z"/><path class="cls-61" d="M1395.63,2647.1c-.92-.83-2-1.54-2.93-2.3l-5.71-4.4c-3.87-3-7.81-5.86-11.73-8.77-1.84-1.37-3.84,1.4-2.1,2.84,3.71,3.07,7.39,6.17,11.15,9.18l5.45,4.36c1.66,1.33,3.9,3.95,6.23,3.32a1.4,1.4,0,0,0,1.16-1.18A3.51,3.51,0,0,0,1395.63,2647.1Z"/><path class="cls-61" d="M1376,2654.06a130.47,130.47,0,0,0-13.08-12c-1.11-.85-2.41.63-1.65,1.7a127.7,127.7,0,0,0,10.3,12c3.49,3.83,7,7.64,10.69,11.34,1.42,1.43,3.6,4.53,6,3.62,2.59-1,0-4.26-1-5.36C1383.54,2661.52,1379.76,2657.8,1376,2654.06Z"/><path class="cls-61" d="M1354.8,2661.68q-4.18-5.17-8.5-10.22a1.43,1.43,0,0,0-2.25,1.77c4.37,6.54,8.93,12.95,13.47,19.38,1.1,1.55,2.33,3.95,4.64,3.43a2.05,2.05,0,0,0,1.52-1.91c.15-1.3-.66-2.25-1.42-3.2Z"/><path class="cls-62" d="M1314.22,2663a535.65,535.65,0,0,1-66.68,17.39c16.72,9.44,54.11,15.56,88.78,12.14a73.75,73.75,0,0,0-3.56-7.58A72.9,72.9,0,0,0,1314.22,2663Z"/><path class="cls-16" d="M1439.5,2632.83c-14.91,1-23.89,21.21-9.13,29.7a16.8,16.8,0,0,0,17.27-.69C1460.57,2653.25,1456.08,2631.78,1439.5,2632.83Z"/><polygon class="cls-55" points="1685.94 2692.29 1682.03 2716.81 1912.85 2721.63 1908.41 2701.76 1685.94 2692.29"/><path class="cls-56" d="M1780.1,2588.56c5-33.21,16.61-83,16.61-83l-77.08-11.4s-6.61,52.1-11.41,92.95c-3.24,27.53-18,95.58-22.29,105.25,0,0,69.44,6.47,132.85,9.56,36.8,1.75,68.24,2.8,86.26.3-20.89-7.18-40-16.47-60.33-26.59C1792.42,2649.51,1773.6,2631.37,1780.1,2588.56Z"/><path class="cls-60" d="M1708.23,2587l71.88,1.5c5-33.2,16.61-83.05,16.61-83.05l-77.08-11.4S1713,2546.19,1708.23,2587Z"/><path class="cls-61" d="M1810.48,2585.56c-4,.63-7.55,3.09-10.55,5.71a93.94,93.94,0,0,0-9.24,9.37,91.58,91.58,0,0,0-7.78,10.39,56.3,56.3,0,0,0-3.37,5.89,18.48,18.48,0,0,0-.71,1.73,119.53,119.53,0,0,0-12.2-22.58,91,91,0,0,0-8.56-11c-2.86-3-6.44-5.42-10.71-5.7a9.83,9.83,0,0,0-9.46,5.09,13.49,13.49,0,0,0-.1,11.4c3.22,7.92,10.27,14.68,17,19.79a64.49,64.49,0,0,0,10.81,6.66,45.18,45.18,0,0,0,9.83,3.86q-2.88,1.13-5.7,2.4c-3,1.38-6,2.89-8.91,4.53-1.55.88-4.21,2.85-2.32,4.8,1.55,1.61,3.71.17,5.22-.72a112.4,112.4,0,0,1,18-8.55,2.33,2.33,0,0,0,1.69-2.73,2.22,2.22,0,0,0-.2-.41,1.79,1.79,0,0,0,0-.23,95.46,95.46,0,0,0,23.19-11.24,91.41,91.41,0,0,0,9.88-7.76c2.91-2.62,5.94-5.82,6.65-9.8C1824.27,2589.32,1817.08,2584.53,1810.48,2585.56Zm-43.26,32.73a60.13,60.13,0,0,1-10.36-6.09c-5.94-4.3-11.88-10.17-15.22-16.74-1.68-3.3-2.45-7.74.22-10.79s7.66-1.86,10.63.28c3.18,2.29,5.61,5.62,8,8.7a119,119,0,0,1,7,10.37,135.09,135.09,0,0,1,8.86,17.47C1773.32,2620.42,1770.17,2619.64,1767.22,2618.29Zm49-17.56c-4.9,5-11.3,9.05-17.41,12.48a93.24,93.24,0,0,1-17.76,7.63c.62-.92,1.25-1.84,1.82-2.8,1.11-1.83,2.19-3.68,3.35-5.48a91,91,0,0,1,7.39-10,79.92,79.92,0,0,1,7.48-7.7c2.68-2.4,5.67-4.79,9.28-5.6,2.78-.63,6.2,0,8.07,2.32C1820.87,2594.66,1818.47,2598.4,1816.2,2600.73Z"/><path class="cls-61" d="M1788.52,2636.28c-4.28,2.36-8.58,4.69-12.82,7.12l-6.26,3.59c-1.07.62-2.19,1.19-3.22,1.88a3.52,3.52,0,0,0-1.92,2.83,1.39,1.39,0,0,0,1,1.31c2.22.94,4.8-1.35,6.63-2.45l6-3.59c4.14-2.47,8.2-5,12.3-7.59C1792.13,2638.18,1790.53,2635.17,1788.52,2636.28Z"/><path class="cls-61" d="M1799.32,2648.25a132.09,132.09,0,0,0-14.6,10.15c-4.23,3.21-8.49,6.39-12.64,9.69-1.19.95-4.2,3.84-1.77,5.17,2.25,1.22,4.83-1.56,6.43-2.79,4.11-3.18,8.16-6.47,12.14-9.79a131.57,131.57,0,0,0,11.84-10.52A1.2,1.2,0,0,0,1799.32,2648.25Z"/><path class="cls-61" d="M1814.5,2659.82q-5,4.42-9.81,9L1796,2677c-.88.83-1.82,1.67-1.84,3a2.06,2.06,0,0,0,1.24,2.1c2.22.82,3.76-1.39,5.06-2.79,5.39-5.75,10.78-11.49,16-17.39A1.43,1.43,0,0,0,1814.5,2659.82Z"/><path class="cls-62" d="M1823.34,2694.84a74.11,74.11,0,0,0-4.56,7c33.88,8,71.76,7,89.62-.11a535.82,535.82,0,0,1-63.69-26.18A73.1,73.1,0,0,0,1823.34,2694.84Z"/><path class="cls-16" d="M1724.71,2628.85c-16.29-3.27-23.66,17.4-12,27.65a16.8,16.8,0,0,0,17,3C1745.48,2653.07,1739.35,2631.79,1724.71,2628.85Z"/><path class="cls-44" d="M1792.93,1529.38l-184.43-10.93,8.81,242.93c.2,6.53.4,13.12.66,19.61,4.53,133.39,13.28,261.48,25.41,385.29,13.75,140.22,31.77,275,53,405.7h139c18.52-291.48,48.15-660.57-9.13-977.14Z"/><path class="cls-44" d="M1417.24,1627.65c-34.89,289.3-65.09,613.18-51.67,915.23l151,29.11c41.25-251.88,113.3-575.88,122.48-867.92l20.13-237.45-226.42,62.77Z"/><path class="cls-32" d="M1643.19,2166.28c23.92-75.9,39.73-128.86,39.73-128.86s-40.55-230.25-49-251.29C1612.25,1916.73,1631.05,2042.47,1643.19,2166.28Z"/><path class="cls-27" d="M1459.07,910.26l-71.4-56a9.54,9.54,0,0,1-3.67-7.55V752a14.13,14.13,0,0,0-14.1-14.14H1114.74a14.13,14.13,0,0,0-14.1,14.14V954.09a14.14,14.14,0,0,0,14.1,14.15H1369.9a14.14,14.14,0,0,0,14.1-14.15V935.62a9.56,9.56,0,0,1,9.53-9.57h60.11a8.83,8.83,0,0,0,5.43-15.79Zm-1.63,8.29a3.93,3.93,0,0,1-3.8,2.71h-60.11a14.36,14.36,0,0,0-14.32,14.36v18.47a9.34,9.34,0,0,1-9.31,9.36H1114.74a9.34,9.34,0,0,1-9.31-9.36V752a9.33,9.33,0,0,1,9.31-9.35H1369.9a9.33,9.33,0,0,1,9.31,9.35v94.69a14.31,14.31,0,0,0,5.5,11.32l71.41,56A4,4,0,0,1,1457.44,918.55Z"/><ellipse class="cls-18" cx="1243.57" cy="854.51" rx="89.32" ry="89.63"/><path class="cls-63" d="M1243.57,764.88v89.63l78.74-42.3A89.22,89.22,0,0,0,1243.57,764.88Z"/><path class="cls-22" d="M1243.57,854.51l66.12,60.1a89.6,89.6,0,0,0,12.62-102.4Z"/><path class="cls-20" d="M1250.4,943.8a88.81,88.81,0,0,0,59.29-29.19l-66.12-60.1Z"/><path class="cls-8" d="M1154.59,847.65c-.17,2.27-.35,4.54-.35,6.86a89.48,89.48,0,0,0,89.33,89.63c2.3,0,4.56-.17,6.83-.34l-6.83-89.29Z"/><path class="cls-64" d="M1922.61,1151.42c.22,5.82-5.17,3.6-8,4.71-3.08,1.19-1.45,6.45-5.62,4.7-1.55-4.7,1.1-10.77,2.4-16.46.83-3.59,3.33-19.87,6.43-19.59,20.73,1.85,46.84,7.89,69,13.33,6.87,1.67,20.78,4,21.67,5.48-.71,6.13-4,14.2-4.82,18.81-1.19,7.07,1.55,11.85-8.83,11-2.16-.18-2.86-2.1-5.61-3.14-5.08-1.9-14.29-3.94-23.28-7-11-3.79-19.63-4.29-31.3-5.48C1929.19,1157.14,1925.48,1155.58,1922.61,1151.42Z"/><g class="cls-65"><path class="cls-66" d="M1933.12,1139.54c-1.54-3.82,5.34-16.83,5.62-22.72.52-11.07-4.68-14.16-12-8.62-.32-2.94-4.86-3.32-7.23-2.36-7.71,3.18-19,46.1-20.06,54.87-1,9.07.63,14.87,8,14.89-1.28,8.74-.52,14.53,5.62,14.89,7.55.45,8.33-8.87,10.43-15.68,1-3.17,4.49-18.8,6.42-19.59,1.07-.44,16.46,7.74,21.67,10.19,28.87,13.57,73.24,32.43,106,18.81-27.55-14.35-65-20.1-94.71-32.14C1958.21,1150.22,1934.43,1142.79,1933.12,1139.54Z"/></g><path class="cls-67" d="M1846.65,1271.32c20-34.31,39.45-68.46,55.38-111.29,1.68-4.54,4.78-16.45,6.42-17.24,2.66-1.28,20.78,4.58,24.88,5.49,21.18,4.72,38.7,8.2,62.6,11.75,1.59.24,11.53-.06,12.84,1.57,2,2.42-2.2,25.75-2.41,29.78-1.62,31-2.24,63.89-9.63,86.21-10.85,32.75-22.94,75.62-32,107.34-10,35.2-20.88,53-37,80-15.76,26.28-40,47.11-81.86,47-10.65,0-24-2.47-28.9-5.49-2-1.24-2-3-4-5.48-3.27-4-6.64-6.71-14.45-3.14-.48-9.69,9.07-14.53,10.43-21.94.91-4.91-1.12-13.84-1.6-21.16-3.26-49.69-.57-104-4.82-152-3.33-37.69-3.56-87.28-7.22-128.53-.54-6.13-1.21-13.5-2.41-20.37-1.78-10.26-6.3-19,0-25.87,2.39-2.62,4.31-1.47,5.62-4.7,5-12.27-7.29-29.2-13.64-40a319,319,0,0,0-38.53-51.73c-7.32-7.87-15-14.44-20.86-23.5-.67-1-.25-2.38-.8-3.14-1.87-2.53-6-6.83.8-9.41,4.39-1.67,14,.92,17.65,2.36,9.61,3.76,22.35,14.37,28.9,21.16,18.6,19.26,34.21,48,47.35,79.15,12.4,29.38,23.78,65.22,26.49,99.53C1847.76,1221.83,1843.36,1246.46,1846.65,1271.32Z"/><g class="cls-68"><g class="cls-69"><path class="cls-70" d="M2032.67,1250.9c-8.41,1-12,11.56-16.06,17.25-21.28,30-51.93,48.44-73.83,78.37-17.54,24-33.17,49-65.82,57.21-20.2,5.07-44.8-1.44-59.39-7-12.27-4.72-21-11.5-34.51-10.19-10.93,1.06-20.71,9.72-24.08,17.24-9.39,20.94,5.51,39.69,8.83,54.86,1.5,6.83.13,9.49,1.61,13.33,4.59,11.95,13.1,12.69,20.86,18,5.78,4,10.1,9.44,15.25,13.32,16,12,34.57,22.68,61.8,24.3,55.72,3.29,86-28.16,110.76-58,13.11-15.82,33.48-36.94,38.52-53.29,7.73-25-11.21-44.12-39.32-41.54,11.84-31.56,46.25-48.82,61-81.5C2043.1,1282.55,2054.73,1248.19,2032.67,1250.9Z"/></g><g class="cls-71"><path class="cls-70" d="M1853.92,1241.54c-8.88,39.33-22.52,75.06-30.51,112.86-10.17,48.13-15.93,99.73-11.24,148.11,8.76-47.76,10.25-94.6,18.47-140.28,8.07-44.88,24.69-87,31.3-130.1C1859.29,1217.43,1854.71,1238,1853.92,1241.54Z"/></g></g><path class="cls-72" d="M1834.39,1592.73c-118.28,28.43-276.23,33.32-414.94,19.6.12-6.6,1-11.3,1.61-19.6.3-4.13,2.79-17.26,1.6-18.81-.54-.71,8.88-41.38,4.53-40.52-43.55,8.57-96.85,28.33-110.46,2.13-6.1-11.73-10.69-26-16.06-40a138.94,138.94,0,0,1-8.83-46.24c-.82-33.52-.06-69.9,8.83-101.88,8-28.68,18.92-56.13,24.88-86.2,18.47-93.2,16.18-198.13,96.32-237.47,42.79-21,89.43-40.37,135.63-61.13,3.11-1.4,7.32-2.16,10.43-3.92,3.51-2,5.66-5,8-5.48,4.58-1,9,.69,12.84,0,9.08-1.65,22.73,1.8,35.31,4.7,11.05,2.54,23.73,3.2,31.3,6.27s13.63,7.7,21.68,10.19c24.7,7.64,52.06,12.5,69.82,25.86,48.15,36.22,59.81,116.29,65.81,195.14,2,26.57,5.7,54.58,4.82,81.51s-4.82,53.84-4.82,81.51C1812.72,1444.47,1817.88,1524.88,1834.39,1592.73Z"/><g class="cls-73"><g class="cls-69"><path class="cls-70" d="M1623.57,1029.41c-16.36-2.71-32.12-9.51-44.14-15.67-19.58-10-32-23.67-46.55-35.26.06,4.78,4.18,11.55,8,15.67,14.92,16,42.32,30.87,69,39.19,6.1,1.89,27.9,9,28.09.78C1638.12,1029.52,1624.58,1029.58,1623.57,1029.41Z"/><path class="cls-70" d="M1675.74,981.61c1.11,10.06-10.56,24.88-9.63,32.13-.19-1.53,3.45,5,2.41,4.7C1674.44,1020,1681.59,982.8,1675.74,981.61Z"/><path class="cls-70" d="M1375.57,1614.06c-10.64,5.14,11.32,11.78,5.62.79C1379.65,1611.89,1377.85,1613,1375.57,1614.06Z"/></g><g class="cls-69"><path class="cls-74" d="M1599.4,905.61c-3.4-.91-8.74.51-9.63.79-8.39,2.59-18.1,15.36-22.47,20.38A184.32,184.32,0,0,1,1540,952.64a250.68,250.68,0,0,1-47.35,28.21c-17.73,8.08-38.7,17.9-61.8,24.29-9.52,2.64-21.89,5.37-33.71,9.41-4.93,1.69-27.64,8.87-25.68,17.24,1.09,4.66,8.2,4.64,16,3.14,33.74-6.44,63.09-11.89,89.89-22,11.25-4.22,21-8.66,31.3-13.32,19.61-8.9,39.2-18.65,56.18-32.91a214.14,214.14,0,0,0,22.47-22c5-5.83,16.07-19.58,16.05-29C1603.41,913.34,1600.42,905.16,1599.4,905.61Z"/><path class="cls-74" d="M1805.67,1100.76c-4.06-23.53-10.35-47.27-18.46-67.4-8.52-21.13-18.87-40.12-32.91-53.29-8.7-8.17-28.28-22.54-44.14-18.81-5.86,1.38-7.68,1.87-7.22,6.27.56,5.44,12.72,5.89,19.26,8.62,10.78,4.51,20,14.5,27.29,25.08,5.85,8.46,10.45,18.76,14.44,29,8.36,21.43,14.11,45.54,17.66,69,3.42,22.55,7.28,51.12,8.83,77.59.71,12.17.85,27.79,1.6,41.54.31,5.62.55,12.17,3.21,18,5.33,11.69,20.2,12.17,24.08-.78,1.78-6,.22-15.16,0-19.6C1817.24,1173.55,1811.36,1133.8,1805.67,1100.76Z"/><path class="cls-74" d="M1836.17,1361.73c.43-13.77,2.64-37.53-10.44-38.4-1.31-.08-4,1.53-4,1.57-7.27,6-9.54,22-11.24,38.4-9.53,92.35-5.37,198.29,7.22,281.35,2.26,14.9,4.66,29.37,9.64,40.76a43,43,0,0,0,13.64,17.24c2.32,1.76,1.81,5.94,4.81,6.27-.11-7,5.79-12,7.23-18.81.39-1.86.66-7,.8-9.4.85-15-1.45-29.87-3.21-44.67C1840.57,1551.53,1833.08,1457.7,1836.17,1361.73Z"/></g></g><path class="cls-64" d="M1671.45,1115.75c-6.1-9.24-12.79-20.06-19.86-31.5-12.77-20.67-27.26-44.1-40.91-62.19a52.11,52.11,0,0,0-5.23-5.65c-2.25-2.2-4.38-4.28-5.18-6.08-2.48-5.54-2.38-12.19.26-16.54a8.69,8.69,0,0,1,6.83-4.4c10.05-.07,15.42,6.35,20.62,12.55a55.9,55.9,0,0,0,6.55,7,35.3,35.3,0,0,0,1.07-5.47c1.71-12,3.85-26.92,13.92-26.92a14.46,14.46,0,0,1,5.12,1.07c2.38.92,3.15,3.07,3.88,5.15.6,1.67,1.17,3.25,2.5,4.24s2.86,1,4.48,1.09,3.41.23,4.33,1.24c3.62,4,5.8,29.74,6.38,37.52C1677.8,1048.21,1676.2,1078.11,1671.45,1115.75Z"/><g class="cls-75"><path class="cls-76" d="M1679.8,1102.67c-2.83-10.4,3.15-26,.81-37.61-5.3-11.61-14.43-23.74-18.47-34.49-1.46-10.67,4.07-29.2-2.4-34.48-2.33-1.9-5.08,1.41-7.23.78-4.6-1.35-6.2-8.21-12-7.84-9.51.61-11,12.47-11.24,28.21-.58-.64-5.55-2.09-4.81.79a30.46,30.46,0,0,0,8.83,15.67c2.9,2.82,6.85,3.26,8,7.06.56,7.67-.94,15.64-1.6,22.72-.73,7.69-3.29,16.17-2.41,22.73,1.3,9.73,9.51,18.86,16,30.56,5,8.9,10.54,25.09,19.26,28.22,22.74,8.14,17.79-25.07,12.84-35.27C1683.91,1106.62,1680.5,1105.22,1679.8,1102.67Z"/><g class="cls-71"><path class="cls-70" d="M1660.92,1013.58c-4.65-3.58.15-7.79-.8-10.18-2.61-6.5-15.45-9-23.28-12.55-1.68,1.74-.62,5.22.8,6.27-2.22.45-4.5.83-4,3.92,3.87,4.36,13.21,3.84,18.46,7.83,2.5,1.91,7.51,9.92,7.22,12.55-1.28,11.64-29.64,9.73-34.51,1.57-2.27-.13.66,4.83-1.6,4.7-1.43-4.6-6.63-1.14-11.24-2.35-3.35-.88-9.08-7.58-11.24-3.14-.37.78,4.91,11.14,5.62,11.76,5.29,4.54,17.65,3,22.47,3.92.45-3.47,0-5.5.8-7.06,2.22,4,10.46,6.75,12,11,.18.46-.37,2.92,0,3.14,6.31,3.86,21.2-1.08,22.48-7,.57-2.65-2.21-6.3-2.41-9.41-.53-8.08,3.3-10.78,5.62-14.89,4.21-7.49,7.14-16.71,5.62-25.86C1667.91,995.34,1667.09,1007.07,1660.92,1013.58Z"/></g></g><path class="cls-77" d="M1574.08,932.36c-4.51-7-21.92,9-20.07,18.52.26,1.3,7.86,10.15,10.44,7.25,4.49,19.33,15.9-12.15,5.61-16.1C1571.08,941.21,1576.21,935.66,1574.08,932.36Z"/><path class="cls-77" d="M1647.11,939.61c2.2,8.8-2,24,6.42,26.58,2.32-1.06,1.66-5.11.81-7.25C1665.73,955.3,1656,939.75,1647.11,939.61Z"/><path class="cls-64" d="M1566.44,928.58c0,1.25.11,2.76.15,3.54-2.2,2.12-9.23,7.93-9.43,10.87,0,2.4,11,9.42,15.45,12.53,12.35,8.59,22.21,15.83,40.8,19.25,9,1.65,21.44,3.81,26.62,1.91,3.29-1.2,8.87-11.32,9.64-12.54,1.57-2.52,7.42-11,7.22-14.89-.24-4.71-3.16-5-5-6.92,6.87-1,9.68,7.68,13.86,14.75,3.42,5.79,8.84,14,12.84,19.6,3.46,16.62-10.19,29.55-16,41.53-5.82-5.5-7.5-25.46-17.66-23.51-7.29,1.4-9.88,27-12,35.27-34-1.77-62.52-15.42-84.27-32.92-3.82-3.07-19.44-14.85-19.26-19.59,0-1.32,7.23-6.47,9.63-9.4,2-2.5,4.54-7.62,7.23-12.54,2.53-4.66,3.9-9.88,6-13.71C1554.09,938.26,1562.74,929.49,1566.44,928.58Z"/><g class="cls-78"><path class="cls-66" d="M1556,921c-8.9,3.3-9.77,15.57-3.83,20.85,3.52,3.13,10.55,3.73,16.67-1.25,1.49-1.21.63-3.73,2.4-6.27,2.23-3.16,5.21-2.45,4.82-6.27C1575.4,921.82,1563.3,918.26,1556,921Z"/><path class="cls-66" d="M1653.88,931.94c.17,0-10.2,3.72-10.43,3.92-5.62,4.69-4.35,15.22,3.21,15.67-.18,0,11.84-3.92,12.84-4.7C1664.75,942.72,1665,930,1653.88,931.94Z"/><path class="cls-66" d="M1646.66,993.85c-8.66-.08,2,7.87,3.21,9.41,6.62,8.28,6.38,10.27,10.43,24.29-3.9-1.94-7.78-3.89-13.64-3.92.77,8.07-4.21,10.52-8,14.11,11,3.25,19.13-3.7,24.88-3.13,2.94.28,3.33,6,8.83,3.91C1686.12,1033.28,1657.18,994,1646.66,993.85Z"/><path class="cls-66" d="M1645.06,1002.47c-6.12-3-13.19,18.14-16,19.59-8.85,4.51-27.09,1.21-36.93.79-4.08-.17-8.48.19-12.84,0-27.19-1.21-57.15-10.29-78.65-7.05,22.52,24,76.62,21.28,122,20.37-.35,12,7.24,10,12,3.13,5.2-7.46,5.45-14,8.83-23.5C1644.06,1014.07,1649.05,1004.46,1645.06,1002.47Z"/><path class="cls-79" d="M1636.58,971c1.52,8.49,4,22.69,8,32.13C1649.38,993.25,1644.5,975.91,1636.58,971Z"/></g><path class="cls-74" d="M1713.07,1181.18c-3,2-7.15,16.7-10.43,24.29-11.42,26.39-19.06,49.38-28.89,75.24-5.23,13.75-14.63,30.16-20.87,48.58-4.07,12-8.13,25.87-12.84,39.19-1.76,5-6.15,10.27-4.82,11.76,3,3.33,13.54.9,17.66.79,37.43-1.06,61.09-4.21,96.31-6.28,6.89-.4,35.49.52,39.33-2.35.63-.47,2.59-8.62,4-12.54,23-63.57,45.37-124.7,70.63-181.82-39.21,1-77.37.54-121.19,1.57C1733,1179.82,1716.38,1179,1713.07,1181.18Z"/><path class="cls-80" d="M1874.66,1175.67c-22.77,55.4-47.45,112.71-68.22,174-2.37,7-5.47,22.93-8.82,25.07-14.22.53-97.79,3.7-137.25,8.63-5.17.12-15.35,2.62-18.46-.79-.51-.56,4.36-12.41,5.62-16.46,1.7-5.46,4.82-12,6.43-16.45,4.6-12.76,6.66-24.44,11.22-34.49,1.12-2.44,4.86-6.19,6.43-9.4,8.7-17.79,48.41-126.09,49.76-127C1725.2,1176.32,1834.86,1176.36,1874.66,1175.67Z"/><polygon class="cls-81" points="1765.16 1185 1824.85 1184.73 1835.19 1162.11 1774.9 1162.11 1765.16 1185"/><path class="cls-64" d="M1619.79,1303.63c12.08,9.73,16.66,22.23,26.5,39.18,3.23,5.58,7.07,12.75,11.23,20.38,3.42,6.29,11.23,18.38,10.43,20.38-.89,2.22-7.71,3.36-7.22,3.13-2.86,1.33-18.83,10.5-20.87,10.19-3.68-.56-10-14.12-12.84-18.81-9.48-15.69-14.27-24.77-23.28-40-2-3.48-11.62-17.92-11.23-19.6C1592.83,1317.15,1617.31,1303.56,1619.79,1303.63Z"/><g class="cls-82"><path class="cls-66" d="M1692.57,1359.22c5.07-18.26-21.58-5.5-32.1-.79-3.22,1.44-20.66,12.29-24.88,11.76-5.3-.66-19.61-21.74-23.28-26.65-7.89-10.55-11.91-19-22.47-28.21-6.09,8.12,5,24.73,11.24,34.48,3.15,4.92,7,9.55,10.43,14.11,2.3,3,10.8,12.31,10.43,14.1s-1.87.8-4,2.35a34.6,34.6,0,0,0-3.21,3.14c-2.66.19-3-3.1-5.62-2.35-9.12,2.59-4.61,13.67,3.21,5.49,1.68,3.75,6.28,7.38,12,4.7-.84,1.87-1.3,6.08.8,7.83,4.95,4.1,9.53-2.26,15.25-1.56,8.89,1.09,9.28,12.47,18.46,11,10.43-1.7,3-12.35-.8-18,7.2-4.65,51.17-13.65,49.76-27.44C1707.13,1356.34,1699.28,1357.23,1692.57,1359.22Z"/></g><path class="cls-83" d="M1551.12,700c-61,20.52-28.83,120.95-28.83,120.95C1589.2,827.15,1584.62,688.7,1551.12,700Z"/><path class="cls-83" d="M1718.75,732.34c-3.21,3.72-10.53,21.18-12.2,28.65s-7.88,30.63-8.57,35.25,18.21,5.45,21.45,6.17,11.08-2.29,11.08-2.29c28.1-25.08,12.72-79.69,12.72-79.69S1722,728.63,1718.75,732.34Z"/><path class="cls-37" d="M1552.45,974.65s19.32,11.74,52,9.22c38.89-3,52-9.22,52-9.22V857.58l-104.08-14Z"/><polygon class="cls-38" points="1656.54 975.23 1656.54 941.62 1582.73 910.78 1656.54 975.23"/><path class="cls-37" d="M1569.64,891.64a20.84,20.84,0,0,0,12.79,19.22l77.42,32.32a20.57,20.57,0,0,0,19.93-2.19l41.62-29.28a20.8,20.8,0,0,0,8.78-17V741.39H1569.64Z"/><path class="cls-46" d="M1700,848.83a30.19,30.19,0,0,0,30.17,30.2V818.64A30.18,30.18,0,0,0,1700,848.83Z"/><path class="cls-47" d="M1685,781a2.32,2.32,0,0,0-2.07,2.54l6.49,63h-20.68a2.32,2.32,0,1,0,0,4.64H1692a2.35,2.35,0,0,0,1.72-.76,2.32,2.32,0,0,0,.58-1.8l-6.75-65.54A2.32,2.32,0,0,0,1685,781Z"/><ellipse class="cls-37" cx="1542" cy="843.09" rx="38.18" ry="38.21" transform="translate(-1.56 2.85) rotate(-0.11)"/><path class="cls-51" d="M1625,777.74c1.48,8,30.54,2.29,30.7-6.5C1656,757.31,1622.55,764.41,1625,777.74Z"/><path class="cls-51" d="M1705.06,768.68c-2.37,7.14,23.61,15.42,27.64,8.4C1739.08,766,1709,756.84,1705.06,768.68Z"/><path class="cls-46" d="M1612,816.62a30.21,30.21,0,1,0,30.18,30.2A30.19,30.19,0,0,0,1612,816.62Z"/><path class="cls-48" d="M1647.1,794.13c-3.55-.08-6.53,4.79-6.68,10.88s2.62,11.1,6.17,11.18,6.53-4.79,6.67-10.88S1650.65,794.21,1647.1,794.13Z"/><path class="cls-48" d="M1710.46,794.09c-3.54-.08-6.53,4.79-6.67,10.88s2.62,11.1,6.16,11.18,6.54-4.79,6.68-10.88S1714,794.17,1710.46,794.09Z"/><path class="cls-47" d="M1532.76,820.6a2.32,2.32,0,0,0-.63,4.59c1,.14,24.06,3.6,21.47,23.09-.76,5.69-2.51,10.33-5.21,13.78a2.32,2.32,0,0,0,.4,3.26,2.29,2.29,0,0,0,1.42.49,2.33,2.33,0,0,0,1.83-.89c3.21-4.12,5.28-9.51,6.15-16C1560.75,829.62,1542.68,822,1532.76,820.6Z"/><path class="cls-47" d="M1533.56,841.43a2.32,2.32,0,0,0,2.53,3.89c1.08-.7,10.7-6.41,17.87,4.54a2.32,2.32,0,0,0,1.94,1,2.26,2.26,0,0,0,1.26-.38,2.32,2.32,0,0,0,.67-3.21C1550,835.27,1538.51,838.2,1533.56,841.43Z"/><path class="cls-83" d="M1739.31,695.88c10.61-1.33,19.57-9.14,16.25-26.45-3.31,11.41-36.29,12.29-76.17-5.09a199.64,199.64,0,0,0-27.45-9.79c-13.7-3.72-28.16-5.88-42.34-4.29-14.89,1.66-43.29,16.46-47.89,31.76-3,10-2.77,14.92-2.66,25.29.08,7,7.19,36.35,8,43.27,18.63,8.28,44.26,8.29,61.85-4s60.26,8.81,90.45,10,42.53-71.64,42.53-71.64S1756.26,695.22,1739.31,695.88Z"/><path class="cls-83" d="M1541.61,647.4c-13.42,0,12.27,39.52,12.27,39.52s-19.11-24.32-29.24-18.24,25.31,39,41.51,31.41C1567.53,699.45,1555,647.4,1541.61,647.4Z"/><path class="cls-83" d="M1563.05,743.26s-7.32,31.28-8.65,37.94-21,20.81-.67,26c20.18,5.1,18.07,24.3,18.07,24.3,20-11.32,15.41-75.78,15.41-75.78L1603,731.27Z"/><path class="cls-32" d="M1673,695.65c-6.58,4.49-6.11,19-4.23,28.59S1656.43,744,1656.43,744l19,3.87a34.39,34.39,0,0,0,10.88-17.09c3.21-11.3-10.63-21.4,1.16-28.7s19.88-28,19.88-28c-7.75-1.81-17.85-5.43-17.85-5.43S1679.52,691.16,1673,695.65Z"/><path class="cls-32" d="M1655.57,683.6c-5.25,12.42-2.91,31.89-2.4,38s-11.88,20.36-11.88,20.36l5.59,0s6.67-7.48,9-14.1.84-14.16.84-14.16-.48-.15-.13-16.82,18.32-34.32,18.32-34.32l-5.82-2.27A126.24,126.24,0,0,0,1655.57,683.6Z"/><path class="cls-83" d="M1559.72,700.65s-55.2,23.3-14,101.85c0,0,15.3-14.65,17-21.63s20.29-35.62,17.3-40.28S1559.72,700.65,1559.72,700.65Z"/><path class="cls-84" d="M1694.72,871.48a7.21,7.21,0,0,0-2.21-.42,27.09,27.09,0,0,0-4.18.57,59.09,59.09,0,0,1-22.76,0,21.47,21.47,0,0,0-7.42-.51,6.26,6.26,0,0,0-4.93,3c-2,3.6-.9,8,1.42,11.48a19.5,19.5,0,0,0,2.19,2.62,26.58,26.58,0,0,0,22.13,7.14,24.63,24.63,0,0,0,9.79-3.72c4.59-3.08,8-7.55,9-12.49C1698.3,876.29,1697.74,872.73,1694.72,871.48Z"/><path class="cls-16" d="M1688.33,871.63a59.09,59.09,0,0,1-22.76,0,21.47,21.47,0,0,0-7.42-.51,7.92,7.92,0,0,0,1.78,5.19,9.46,9.46,0,0,0,5.41,2.46,49.46,49.46,0,0,0,21.79-.4c1.69-.42,3.49-1,4.55-2.39a6.47,6.47,0,0,0,.83-4.94A27.09,27.09,0,0,0,1688.33,871.63Z"/><path class="cls-85" d="M1676.37,885.13a29.64,29.64,0,0,0-19.54,3.08,26.58,26.58,0,0,0,22.13,7.14,24.63,24.63,0,0,0,9.79-3.72C1685.92,888,1681.08,885.91,1676.37,885.13Z"/><path class="cls-86" d="M1552.14,941.81,1544,976.59s43.08,19.27,48.37,22.52,48.08-5.7,48.08-5.7l-3.06-15.47C1587.37,980.11,1552.14,941.81,1552.14,941.81Z"/><path class="cls-86" d="M1656.58,959.78c-1.94,14.78-13.9,19.25-13.9,19.25l20,.83-1.39-12.55S1658.53,945,1656.58,959.78Z"/><path class="cls-87" d="M1466.57,1355S1500,1182.58,1500,1108.34s-62-93.39-62-93.39c-56.08,19.15-91.88,107.76-126.48,249s-32.22,223.91,15.51,291,312.63-148.47,312.63-148.47l-51.31-100.58Z"/><path class="cls-57" d="M1788.25,1242.45c-2.32-5-6.83-1.52-6.83-1.52,2.86-4.46,5.31-17.53,3.06-21.2S1766,1230.2,1766,1230.2s14.92-19.59,3.24-19.65-82,56.11-82,56.11l2.14-27.21s-28.62,28.74-32.43,41.51-23.45,32.9-23.45,32.9l27.12,58s72.84-38.34,84.33-47.4,40.1-40.66,40.1-40.66c-8.85-2.41-31.14,12.11-31.14,12.11C1772.43,1279.1,1790.58,1247.39,1788.25,1242.45Z"/><path class="cls-58" d="M1708.92,1278.67a1.2,1.2,0,0,1-.92-.43,1.19,1.19,0,0,1,.16-1.69l57.11-47.28a1.2,1.2,0,0,1,1.53,1.85l-57.12,47.28A1.2,1.2,0,0,1,1708.92,1278.67Z"/><path class="cls-58" d="M1722.25,1292.71a1.18,1.18,0,0,1-1-.49,1.2,1.2,0,0,1,.25-1.68c21.43-15.75,58.69-50.15,59.07-50.49a1.19,1.19,0,0,1,1.69.06,1.2,1.2,0,0,1-.07,1.7c-.37.34-37.73,34.84-59.27,50.67A1.23,1.23,0,0,1,1722.25,1292.71Z"/><path class="cls-58" d="M1734.59,1311.73a1.2,1.2,0,0,1-.72-2.16l19.34-14.62a1.2,1.2,0,1,1,1.44,1.91l-19.33,14.62A1.17,1.17,0,0,1,1734.59,1311.73Z"/><polygon class="cls-58" points="1660.64 1371.86 1673.69 1364.93 1633.52 1313.86 1660.64 1371.86"/></g></g></svg>